<?xml version="1.0" encoding="UTF-8" standalone="no"?>
<!DOCTYPE svg PUBLIC "-//W3C//DTD SVG 1.1//EN" "http://www.w3.org/Graphics/SVG/1.1/DTD/svg11.dtd">
<svg width="100%" height="100%" viewBox="0 0 499 425" version="1.1" xmlns="http://www.w3.org/2000/svg" xmlns:xlink="http://www.w3.org/1999/xlink" xml:space="preserve" xmlns:serif="http://www.serif.com/" style="fill-rule:evenodd;clip-rule:evenodd;stroke-linejoin:round;stroke-miterlimit:2;">
    <g transform="matrix(1,0,0,1,-239.475,-13.268)">
        <g>
            <g transform="matrix(1,0,0,1,-268.244,-87.2844)">
                <path d="M930.734,274.341L930.609,274.341L859.119,304.867L761.306,346.634C760.534,346.959 759.665,346.963 758.89,346.647L657.975,304.78L584.729,274.39L584.617,274.341L584.492,274.341C582.102,274.343 580.136,276.309 580.133,278.7L580.133,468.012C580.136,470.402 582.102,472.368 584.492,472.371L930.734,472.371C933.124,472.368 935.091,470.402 935.093,468.012L935.093,278.7C935.091,276.309 933.124,274.343 930.734,274.341Z" style="fill:white;fill-rule:nonzero;"/>
            </g>
            <g transform="matrix(1,0,0,1,-268.244,-87.2844)">
                <path d="M931.045,275.586C930.918,275.586 930.794,275.547 930.689,275.474L758.466,155.533C757.395,154.791 755.967,154.793 754.899,155.539L583.916,275.473C583.811,275.546 583.687,275.585 583.56,275.585C583.218,275.585 582.937,275.304 582.937,274.962C582.937,274.76 583.035,274.57 583.2,274.453L754.183,154.519C755.679,153.475 757.678,153.472 759.178,154.511L931.401,274.452C931.568,274.568 931.668,274.76 931.668,274.963C931.668,275.305 931.387,275.586 931.045,275.586Z" style="fill:rgb(63,61,86);fill-rule:nonzero;"/>
            </g>
            <g transform="matrix(1,0,0,1,-110.228,58.9836)">
                <path d="M435.67,133.57L598.834,12.645L763.237,142.174L607.241,234.65L522.549,215.346L435.67,133.57Z" style="fill:rgb(230,230,230);fill-rule:nonzero;"/>
            </g>
            <g transform="matrix(1,0,0,1,-268.244,-87.2844)">
                <path d="M687.725,438.037L607.101,438.037C605.035,438.037 603.335,436.337 603.335,434.271C603.335,432.207 605.032,430.508 607.096,430.505L687.72,430.505C689.786,430.505 691.486,432.205 691.486,434.271C691.486,436.335 689.789,438.034 687.725,438.037Z" style="fill:rgb(32,193,127);fill-rule:nonzero;"/>
            </g>
            <g transform="matrix(1,0,0,1,-268.244,-87.2844)">
                <path d="M636.038,421.846L607.104,421.846C605.038,421.846 603.338,420.146 603.338,418.08C603.338,416.017 605.033,414.319 607.096,414.314L636.035,414.314C638.101,414.314 639.801,416.014 639.801,418.08C639.801,420.145 638.103,421.844 636.038,421.846Z" style="fill:rgb(32,193,127);fill-rule:nonzero;"/>
            </g>
            <g transform="matrix(1,0,0,1,-268.244,-87.2844)">
                <path d="M759.145,347.191C758.532,347.192 757.925,347.073 757.358,346.841L656.73,305.087L656.73,174.391C656.733,172.001 658.699,170.035 661.089,170.032L854.137,170.032C856.528,170.035 858.494,172.001 858.497,174.391L858.497,305.179L858.307,305.26L760.986,346.821C760.403,347.066 759.777,347.192 759.145,347.191Z" style="fill:white;fill-rule:nonzero;"/>
            </g>
            <g transform="matrix(1,0,0,1,-268.244,-87.2844)">
                <path d="M759.145,347.502C758.492,347.503 757.845,347.376 757.24,347.129L656.418,305.295L656.418,174.391C656.421,171.83 658.528,169.723 661.089,169.721L854.137,169.721C856.698,169.723 858.805,171.83 858.808,174.391L858.808,305.384L761.108,347.107C760.487,347.368 759.819,347.503 759.145,347.502ZM657.664,304.463L757.715,345.978C758.647,346.356 759.693,346.35 760.622,345.961L857.562,304.562L857.562,174.391C857.56,172.513 856.015,170.968 854.137,170.966L661.089,170.966C659.211,170.968 657.666,172.513 657.664,174.391L657.664,304.463Z" style="fill:rgb(63,61,86);fill-rule:nonzero;"/>
            </g>
            <g transform="matrix(1,0,0,1,-268.244,-87.2844)">
                <path d="M929.8,274.341L929.675,274.341L858.185,304.867L760.372,346.634C759.6,346.959 758.73,346.963 757.955,346.647L657.041,304.78L583.795,274.39L583.683,274.341L583.558,274.341C581.168,274.343 579.201,276.309 579.199,278.7L579.199,468.012C579.201,470.402 581.168,472.368 583.558,472.371L929.8,472.371C932.19,472.368 934.156,470.402 934.159,468.012L934.159,278.7C934.156,276.309 932.19,274.343 929.8,274.341ZM932.913,468.012C932.913,469.72 931.508,471.125 929.8,471.125L583.558,471.125C581.85,471.125 580.445,469.72 580.444,468.012L580.444,278.7C580.447,277.037 581.778,275.653 583.44,275.586L657.041,306.125L757.476,347.799C758.563,348.241 759.782,348.234 760.864,347.78L858.185,306.218L929.924,275.586C931.583,275.658 932.91,277.04 932.913,278.7L932.913,468.012Z" style="fill:rgb(63,61,86);fill-rule:nonzero;"/>
            </g>
            <g transform="matrix(1,0,0,1,-268.244,-87.2844)">
                <path d="M743.479,218.887L674.978,218.887C672.247,218.883 670.003,216.635 670.003,213.905C670.003,211.174 672.247,208.927 674.978,208.923L743.479,208.923C746.209,208.927 748.454,211.174 748.454,213.905C748.454,216.635 746.209,218.883 743.479,218.887Z" style="fill:rgb(32,193,127);fill-rule:nonzero;"/>
            </g>
            <g transform="matrix(1,0,0,1,-268.244,-87.2844)">
                <path d="M707.983,197.714L674.978,197.714C672.245,197.714 669.996,195.465 669.996,192.732C669.996,189.999 672.245,187.75 674.978,187.75L707.983,187.75C710.716,187.75 712.965,189.999 712.965,192.732C712.965,195.465 710.716,197.714 707.983,197.714Z" style="fill:rgb(32,193,127);fill-rule:nonzero;"/>
            </g>
            <g transform="matrix(1,0,0,1,-268.244,-87.2844)">
                <path d="M808.847,268.706L704.227,268.706C701.497,268.702 699.252,266.454 699.252,263.724C699.252,260.993 701.497,258.746 704.227,258.742L808.847,258.742C811.577,258.746 813.822,260.993 813.822,263.724C813.822,266.454 811.577,268.702 808.847,268.706Z" style="fill:rgb(204,204,204);fill-rule:nonzero;"/>
            </g>
            <g transform="matrix(1,0,0,1,-268.244,-87.2844)">
                <path d="M808.847,291.747L704.227,291.747C701.494,291.747 699.245,289.498 699.245,286.765C699.245,284.032 701.494,281.783 704.227,281.783L808.847,281.783C811.58,281.783 813.829,284.032 813.829,286.765C813.829,289.498 811.58,291.747 808.847,291.747Z" style="fill:rgb(204,204,204);fill-rule:nonzero;"/>
            </g>
            <g transform="matrix(1,0,0,1,-110.228,58.9836)">
                <circle cx="769.853" cy="129.878" r="47.371" style="fill:rgb(32,193,127);"/>
            </g>
            <g transform="matrix(1,0,0,1,-110.228,58.9836)">
                <path d="M765.339,149.875L751.161,131.644L759.406,125.231L766.119,133.863L788.798,109.922L796.382,117.107L765.339,149.875Z" style="fill:white;fill-rule:nonzero;"/>
            </g>
        </g>
    </g>
</svg>
