<svg id="visual" viewBox="0 0 900 600" width="900" height="600" xmlns="http://www.w3.org/2000/svg" xmlns:xlink="http://www.w3.org/1999/xlink" version="1.1"><path d="M0 121L13.7 128C27.3 135 54.7 149 82 145C109.3 141 136.7 119 163.8 113C191 107 218 117 245.2 132C272.3 147 299.7 167 327 175C354.3 183 381.7 179 409 191C436.3 203 463.7 231 491 218C518.3 205 545.7 151 573 140C600.3 129 627.7 161 654.8 173C682 185 709 177 736.2 171C763.3 165 790.7 161 818 163C845.3 165 872.7 173 886.3 177L900 181L900 0L886.3 0C872.7 0 845.3 0 818 0C790.7 0 763.3 0 736.2 0C709 0 682 0 654.8 0C627.7 0 600.3 0 573 0C545.7 0 518.3 0 491 0C463.7 0 436.3 0 409 0C381.7 0 354.3 0 327 0C299.7 0 272.3 0 245.2 0C218 0 191 0 163.8 0C136.7 0 109.3 0 82 0C54.7 0 27.3 0 13.7 0L0 0Z" fill="#383838"></path><path d="M0 175L13.7 196C27.3 217 54.7 259 82 267C109.3 275 136.7 249 163.8 240C191 231 218 239 245.2 249C272.3 259 299.7 271 327 279C354.3 287 381.7 291 409 305C436.3 319 463.7 343 491 337C518.3 331 545.7 295 573 287C600.3 279 627.7 299 654.8 305C682 311 709 303 736.2 290C763.3 277 790.7 259 818 264C845.3 269 872.7 297 886.3 311L900 325L900 179L886.3 175C872.7 171 845.3 163 818 161C790.7 159 763.3 163 736.2 169C709 175 682 183 654.8 171C627.7 159 600.3 127 573 138C545.7 149 518.3 203 491 216C463.7 229 436.3 201 409 189C381.7 177 354.3 181 327 173C299.7 165 272.3 145 245.2 130C218 115 191 105 163.8 111C136.7 117 109.3 139 82 143C54.7 147 27.3 133 13.7 126L0 119Z" fill="#262626"></path><path d="M0 271L13.7 293C27.3 315 54.7 359 82 362C109.3 365 136.7 327 163.8 316C191 305 218 321 245.2 328C272.3 335 299.7 333 327 338C354.3 343 381.7 355 409 368C436.3 381 463.7 395 491 390C518.3 385 545.7 361 573 353C600.3 345 627.7 353 654.8 352C682 351 709 341 736.2 332C763.3 323 790.7 315 818 329C845.3 343 872.7 379 886.3 397L900 415L900 323L886.3 309C872.7 295 845.3 267 818 262C790.7 257 763.3 275 736.2 288C709 301 682 309 654.8 303C627.7 297 600.3 277 573 285C545.7 293 518.3 329 491 335C463.7 341 436.3 317 409 303C381.7 289 354.3 285 327 277C299.7 269 272.3 257 245.2 247C218 237 191 229 163.8 238C136.7 247 109.3 273 82 265C54.7 257 27.3 215 13.7 194L0 173Z" fill="#151515"></path><path d="M0 481L13.7 492C27.3 503 54.7 525 82 529C109.3 533 136.7 519 163.8 509C191 499 218 493 245.2 492C272.3 491 299.7 495 327 498C354.3 501 381.7 503 409 509C436.3 515 463.7 525 491 533C518.3 541 545.7 547 573 538C600.3 529 627.7 505 654.8 492C682 479 709 477 736.2 485C763.3 493 790.7 511 818 521C845.3 531 872.7 533 886.3 534L900 535L900 413L886.3 395C872.7 377 845.3 341 818 327C790.7 313 763.3 321 736.2 330C709 339 682 349 654.8 350C627.7 351 600.3 343 573 351C545.7 359 518.3 383 491 388C463.7 393 436.3 379 409 366C381.7 353 354.3 341 327 336C299.7 331 272.3 333 245.2 326C218 319 191 303 163.8 314C136.7 325 109.3 363 82 360C54.7 357 27.3 313 13.7 291L0 269Z" fill="#131313"></path><path d="M0 601L13.7 601C27.3 601 54.7 601 82 601C109.3 601 136.7 601 163.8 601C191 601 218 601 245.2 601C272.3 601 299.7 601 327 601C354.3 601 381.7 601 409 601C436.3 601 463.7 601 491 601C518.3 601 545.7 601 573 601C600.3 601 627.7 601 654.8 601C682 601 709 601 736.2 601C763.3 601 790.7 601 818 601C845.3 601 872.7 601 886.3 601L900 601L900 533L886.3 532C872.7 531 845.3 529 818 519C790.7 509 763.3 491 736.2 483C709 475 682 477 654.8 490C627.7 503 600.3 527 573 536C545.7 545 518.3 539 491 531C463.7 523 436.3 513 409 507C381.7 501 354.3 499 327 496C299.7 493 272.3 489 245.2 490C218 491 191 497 163.8 507C136.7 517 109.3 531 82 527C54.7 523 27.3 501 13.7 490L0 479Z" fill="#111111"></path></svg>