<svg id="visual" viewBox="0 0 900 600" width="900" height="600" xmlns="http://www.w3.org/2000/svg" xmlns:xlink="http://www.w3.org/1999/xlink" version="1.1"><path d="M0 37L82 61L164 61L245 85L327 61L409 85L491 43L573 67L655 49L736 67L818 73L900 97L900 0L818 0L736 0L655 0L573 0L491 0L409 0L327 0L245 0L164 0L82 0L0 0Z" fill="#151515"></path><path d="M0 169L82 211L164 271L245 295L327 301L409 223L491 349L573 217L655 211L736 217L818 151L900 259L900 95L818 71L736 65L655 47L573 65L491 41L409 83L327 59L245 83L164 59L82 59L0 35Z" fill="#20372b"></path><path d="M0 211L82 331L164 319L245 355L327 349L409 289L491 397L573 307L655 295L736 319L818 241L900 379L900 257L818 149L736 215L655 209L573 215L491 347L409 221L327 299L245 293L164 269L82 209L0 167Z" fill="#275d42"></path><path d="M0 499L82 505L164 529L245 547L327 517L409 505L491 523L573 493L655 517L736 445L818 469L900 463L900 377L818 239L736 317L655 293L573 305L491 395L409 287L327 347L245 353L164 317L82 329L0 209Z" fill="#28855b"></path><path d="M0 601L82 601L164 601L245 601L327 601L409 601L491 601L573 601L655 601L736 601L818 601L900 601L900 461L818 467L736 443L655 515L573 491L491 521L409 503L327 515L245 545L164 527L82 503L0 497Z" fill="#20b075"></path></svg>