<?xml version="1.0" encoding="UTF-8" standalone="no"?>
<!DOCTYPE svg PUBLIC "-//W3C//DTD SVG 1.1//EN" "http://www.w3.org/Graphics/SVG/1.1/DTD/svg11.dtd">
<svg width="100%" height="100%" viewBox="0 0 2000 2000" version="1.1" xmlns="http://www.w3.org/2000/svg" xmlns:xlink="http://www.w3.org/1999/xlink" xml:space="preserve" xmlns:serif="http://www.serif.com/" style="fill-rule:evenodd;clip-rule:evenodd;stroke-linejoin:round;stroke-miterlimit:2;">
    <g transform="matrix(1.62028,0,0,1.62028,-236.926,-821.623)">
        <circle cx="763.401" cy="1124.26" r="617.176" style="fill:rgb(68,71,162);"/>
    </g>
    <g transform="matrix(27.0833,0,0,27.0833,1000,1000)">
        <g transform="matrix(1,0,0,1,-24,-24)">
            <path d="M17.7,28.85C16.933,28.85 16.292,28.592 15.775,28.075C15.258,27.558 15,26.917 15,26.15C15,25.383 15.258,24.742 15.775,24.225C16.292,23.708 16.933,23.45 17.7,23.45C18.467,23.45 19.108,23.708 19.625,24.225C20.142,24.742 20.4,25.383 20.4,26.15C20.4,26.917 20.142,27.558 19.625,28.075C19.108,28.592 18.467,28.85 17.7,28.85ZM30.35,28.85C29.583,28.85 28.942,28.592 28.425,28.075C27.908,27.558 27.65,26.917 27.65,26.15C27.65,25.383 27.908,24.742 28.425,24.225C28.942,23.708 29.583,23.45 30.35,23.45C31.117,23.45 31.758,23.708 32.275,24.225C32.792,24.742 33.05,25.383 33.05,26.15C33.05,26.917 32.792,27.558 32.275,28.075C31.758,28.592 31.117,28.85 30.35,28.85ZM24,41C28.733,41 32.75,39.35 36.05,36.05C39.35,32.75 41,28.733 41,24C41,23.133 40.933,22.283 40.8,21.45C40.667,20.617 40.5,19.85 40.3,19.15C39.633,19.317 38.908,19.433 38.125,19.5C37.342,19.567 36.533,19.6 35.7,19.6C32.467,19.6 29.408,18.933 26.525,17.6C23.642,16.267 21.183,14.367 19.15,11.9C18.017,14.6 16.392,16.958 14.275,18.975C12.158,20.992 9.733,22.55 7,23.65L7,24C7,28.733 8.65,32.75 11.95,36.05C15.25,39.35 19.267,41 24,41ZM24,44C21.233,44 18.633,43.475 16.2,42.425C13.767,41.375 11.65,39.95 9.85,38.15C8.05,36.35 6.625,34.233 5.575,31.8C4.525,29.367 4,26.767 4,24C4,21.233 4.525,18.633 5.575,16.2C6.625,13.767 8.05,11.65 9.85,9.85C11.65,8.05 13.767,6.625 16.2,5.575C18.633,4.525 21.233,4 24,4C26.767,4 29.367,4.525 31.8,5.575C34.233,6.625 36.35,8.05 38.15,9.85C39.95,11.65 41.375,13.767 42.425,16.2C43.475,18.633 44,21.233 44,24C44,26.767 43.475,29.367 42.425,31.8C41.375,34.233 39.95,36.35 38.15,38.15C36.35,39.95 34.233,41.375 31.8,42.425C29.367,43.475 26.767,44 24,44ZM19.4,7.65C22.333,11.083 25.042,13.433 27.525,14.7C30.008,15.967 32.733,16.6 35.7,16.6C36.5,16.6 37.133,16.583 37.6,16.55C38.067,16.517 38.583,16.417 39.15,16.25C37.65,13.55 35.608,11.333 33.025,9.6C30.442,7.867 27.433,7 24,7C23.1,7 22.25,7.067 21.45,7.2C20.65,7.333 19.967,7.483 19.4,7.65ZM7.45,20.1C9.05,19.5 10.875,18.142 12.925,16.025C14.975,13.908 16.433,11.35 17.3,8.35C14.4,9.65 12.208,11.308 10.725,13.325C9.242,15.342 8.15,17.6 7.45,20.1Z" style="fill:white;fill-rule:nonzero;"/>
        </g>
    </g>
</svg>
