<?xml version="1.0" encoding="UTF-8" standalone="no"?>
<!DOCTYPE svg PUBLIC "-//W3C//DTD SVG 1.1//EN" "http://www.w3.org/Graphics/SVG/1.1/DTD/svg11.dtd">
<svg width="100%" height="100%" viewBox="0 0 2000 2000" version="1.1" xmlns="http://www.w3.org/2000/svg" xmlns:xlink="http://www.w3.org/1999/xlink" xml:space="preserve" xmlns:serif="http://www.serif.com/" style="fill-rule:evenodd;clip-rule:evenodd;stroke-linejoin:round;stroke-miterlimit:2;">
    <g transform="matrix(1.62028,0,0,1.62028,-236.926,-821.623)">
        <circle cx="763.401" cy="1124.26" r="617.176" style="fill:rgb(68,71,162);"/>
    </g>
    <g transform="matrix(27.0833,0,0,27.0833,1000,1000)">
        <g transform="matrix(1,0,0,1,-24,-24)">
            <path d="M24,22C18.633,22 14.292,21.183 10.975,19.55C7.658,17.917 6,16.067 6,14C6,11.9 7.658,10.042 10.975,8.425C14.292,6.808 18.633,6 24,6C29.367,6 33.708,6.808 37.025,8.425C40.342,10.042 42,11.9 42,14C42,16.067 40.342,17.917 37.025,19.55C33.708,21.183 29.367,22 24,22ZM24,32C19.133,32 14.917,31.267 11.35,29.8C7.783,28.333 6,26.567 6,24.5L6,19.5C6,20.8 6.625,21.925 7.875,22.875C9.125,23.825 10.675,24.608 12.525,25.225C14.375,25.842 16.342,26.292 18.425,26.575C20.508,26.858 22.367,27 24,27C25.667,27 27.533,26.858 29.6,26.575C31.667,26.292 33.625,25.85 35.475,25.25C37.325,24.65 38.875,23.875 40.125,22.925C41.375,21.975 42,20.833 42,19.5L42,24.5C42,26.567 40.217,28.333 36.65,29.8C33.083,31.267 28.867,32 24,32ZM24,42C19.133,42 14.917,41.267 11.35,39.8C7.783,38.333 6,36.567 6,34.5L6,29.5C6,30.8 6.625,31.925 7.875,32.875C9.125,33.825 10.675,34.608 12.525,35.225C14.375,35.842 16.342,36.292 18.425,36.575C20.508,36.858 22.367,37 24,37C25.667,37 27.533,36.858 29.6,36.575C31.667,36.292 33.625,35.85 35.475,35.25C37.325,34.65 38.875,33.875 40.125,32.925C41.375,31.975 42,30.833 42,29.5L42,34.5C42,36.567 40.217,38.333 36.65,39.8C33.083,41.267 28.867,42 24,42Z" style="fill:white;fill-rule:nonzero;"/>
        </g>
    </g>
    <g transform="matrix(4.16667,0,0,4.16667,1000,685.518)">
        <g transform="matrix(1,0,0,1,-24,-24)">
            <path d="M11,44C10.167,44 9.458,43.708 8.875,43.125C8.292,42.542 8,41.833 8,41L8,19.3C8,18.467 8.292,17.758 8.875,17.175C9.458,16.592 10.167,16.3 11,16.3L14.5,16.3L14.5,11.5C14.5,8.867 15.425,6.625 17.275,4.775C19.125,2.925 21.367,2 24,2C26.633,2 28.875,2.925 30.725,4.775C32.575,6.625 33.5,8.867 33.5,11.5L33.5,16.3L37,16.3C37.833,16.3 38.542,16.592 39.125,17.175C39.708,17.758 40,18.467 40,19.3L40,41C40,41.833 39.708,42.542 39.125,43.125C38.542,43.708 37.833,44 37,44L11,44ZM11,41L37,41L37,19.3L11,19.3L11,41ZM24,34C25.067,34 25.975,33.633 26.725,32.9C27.475,32.167 27.85,31.283 27.85,30.25C27.85,29.25 27.475,28.342 26.725,27.525C25.975,26.708 25.067,26.3 24,26.3C22.933,26.3 22.025,26.708 21.275,27.525C20.525,28.342 20.15,29.25 20.15,30.25C20.15,31.283 20.525,32.167 21.275,32.9C22.025,33.633 22.933,34 24,34ZM17.5,16.3L30.5,16.3L30.5,11.5C30.5,9.7 29.867,8.167 28.6,6.9C27.333,5.633 25.8,5 24,5C22.2,5 20.667,5.633 19.4,6.9C18.133,8.167 17.5,9.7 17.5,11.5L17.5,16.3ZM11,41L11,19.3L11,41Z" style="fill:rgb(68,71,162);fill-rule:nonzero;"/>
        </g>
    </g>
</svg>
