<?xml version="1.0" encoding="UTF-8" standalone="no"?>
<!DOCTYPE svg PUBLIC "-//W3C//DTD SVG 1.1//EN" "http://www.w3.org/Graphics/SVG/1.1/DTD/svg11.dtd">
<svg width="100%" height="100%" viewBox="0 0 2000 2000" version="1.1" xmlns="http://www.w3.org/2000/svg" xmlns:xlink="http://www.w3.org/1999/xlink" xml:space="preserve" xmlns:serif="http://www.serif.com/" style="fill-rule:evenodd;clip-rule:evenodd;stroke-linejoin:round;stroke-miterlimit:2;">
    <g transform="matrix(1.62028,0,0,1.62028,-236.926,-821.623)">
        <circle cx="763.401" cy="1124.26" r="617.176" style="fill:rgb(68,71,162);"/>
    </g>
    <g transform="matrix(27.0833,0,0,27.0833,1000,1000)">
        <g transform="matrix(1,0,0,1,-24,-24)">
            <path d="M36,11.65C35,11.65 34.142,11.292 33.425,10.575C32.708,9.858 32.35,9 32.35,8C32.35,7 32.708,6.142 33.425,5.425C34.142,4.708 35,4.35 36,4.35C37,4.35 37.858,4.708 38.575,5.425C39.292,6.142 39.65,7 39.65,8C39.65,9 39.292,9.858 38.575,10.575C37.858,11.292 37,11.65 36,11.65ZM33,44L33,27.2C33,26.2 32.75,25.3 32.25,24.5C31.75,23.7 31.017,23.117 30.05,22.75L32.1,16.75C32.367,15.917 32.858,15.25 33.575,14.75C34.292,14.25 35.1,14 36,14C36.9,14 37.708,14.25 38.425,14.75C39.142,15.25 39.633,15.917 39.9,16.75L45,31.5L39.5,31.5L39.5,44L33,44ZM24.75,23C23.917,23 23.208,22.708 22.625,22.125C22.042,21.542 21.75,20.833 21.75,20C21.75,19.167 22.042,18.458 22.625,17.875C23.208,17.292 23.917,17 24.75,17C25.583,17 26.292,17.292 26.875,17.875C27.458,18.458 27.75,19.167 27.75,20C27.75,20.833 27.458,21.542 26.875,22.125C26.292,22.708 25.583,23 24.75,23ZM11,11.65C10,11.65 9.142,11.292 8.425,10.575C7.708,9.858 7.35,9 7.35,8C7.35,7 7.708,6.142 8.425,5.425C9.142,4.708 10,4.35 11,4.35C12,4.35 12.858,4.708 13.575,5.425C14.292,6.142 14.65,7 14.65,8C14.65,9 14.292,9.858 13.575,10.575C12.858,11.292 12,11.65 11,11.65ZM7.5,44L7.5,29.5L4,29.5L4,17C4,16.167 4.292,15.458 4.875,14.875C5.458,14.292 6.167,14 7,14L15,14C15.833,14 16.542,14.292 17.125,14.875C17.708,15.458 18,16.167 18,17L18,29.5L14.5,29.5L14.5,44L7.5,44ZM22,44L22,35.5L19.5,35.5L19.5,27.2C19.5,26.6 19.717,26.083 20.15,25.65C20.583,25.217 21.1,25 21.7,25L27.8,25C28.4,25 28.917,25.217 29.35,25.65C29.783,26.083 30,26.6 30,27.2L30,35.5L27.5,35.5L27.5,44L22,44Z" style="fill:white;fill-rule:nonzero;"/>
        </g>
    </g>
</svg>
