<?xml version="1.0" encoding="UTF-8" standalone="no"?>
<!DOCTYPE svg PUBLIC "-//W3C//DTD SVG 1.1//EN" "http://www.w3.org/Graphics/SVG/1.1/DTD/svg11.dtd">
<svg width="100%" height="100%" viewBox="0 0 2000 2000" version="1.1" xmlns="http://www.w3.org/2000/svg" xmlns:xlink="http://www.w3.org/1999/xlink" xml:space="preserve" xmlns:serif="http://www.serif.com/" style="fill-rule:evenodd;clip-rule:evenodd;stroke-linejoin:round;stroke-miterlimit:2;">
    <g transform="matrix(1.62028,0,0,1.62028,-236.926,-821.623)">
        <circle cx="763.401" cy="1124.26" r="617.176" style="fill:rgb(68,71,162);"/>
    </g>
    <g transform="matrix(4.16667,0,0,4.16667,1000,685.518)">
        <g transform="matrix(1,0,0,1,-24,-24)">
            <path d="M11,44C10.167,44 9.458,43.708 8.875,43.125C8.292,42.542 8,41.833 8,41L8,19.3C8,18.467 8.292,17.758 8.875,17.175C9.458,16.592 10.167,16.3 11,16.3L14.5,16.3L14.5,11.5C14.5,8.867 15.425,6.625 17.275,4.775C19.125,2.925 21.367,2 24,2C26.633,2 28.875,2.925 30.725,4.775C32.575,6.625 33.5,8.867 33.5,11.5L33.5,16.3L37,16.3C37.833,16.3 38.542,16.592 39.125,17.175C39.708,17.758 40,18.467 40,19.3L40,41C40,41.833 39.708,42.542 39.125,43.125C38.542,43.708 37.833,44 37,44L11,44ZM11,41L37,41L37,19.3L11,19.3L11,41ZM24,34C25.067,34 25.975,33.633 26.725,32.9C27.475,32.167 27.85,31.283 27.85,30.25C27.85,29.25 27.475,28.342 26.725,27.525C25.975,26.708 25.067,26.3 24,26.3C22.933,26.3 22.025,26.708 21.275,27.525C20.525,28.342 20.15,29.25 20.15,30.25C20.15,31.283 20.525,32.167 21.275,32.9C22.025,33.633 22.933,34 24,34ZM17.5,16.3L30.5,16.3L30.5,11.5C30.5,9.7 29.867,8.167 28.6,6.9C27.333,5.633 25.8,5 24,5C22.2,5 20.667,5.633 19.4,6.9C18.133,8.167 17.5,9.7 17.5,11.5L17.5,16.3ZM11,41L11,19.3L11,41Z" style="fill:rgb(68,71,162);fill-rule:nonzero;"/>
        </g>
    </g>
    <g transform="matrix(27.0833,0,0,27.0833,1000,1000)">
        <g transform="matrix(1,0,0,1,-24,-24)">
            <path d="M16,44C15.433,44 14.958,43.808 14.575,43.425C14.192,43.042 14,42.567 14,42L14,10C14,9.433 14.192,8.958 14.575,8.575C14.958,8.192 15.433,8 16,8L20,8L20,4L28,4L28,8L32,8C32.567,8 33.042,8.192 33.425,8.575C33.808,8.958 34,9.433 34,10L34,42C34,42.567 33.808,43.042 33.425,43.425C33.042,43.808 32.567,44 32,44L16,44ZM22.5,38.2L29.3,25.55L25.45,25.55L25.45,15.85L18.65,28.5L22.5,28.5L22.5,38.2Z" style="fill:white;fill-rule:nonzero;"/>
        </g>
    </g>
</svg>
