<?xml version="1.0" encoding="UTF-8" standalone="no"?>
<!DOCTYPE svg PUBLIC "-//W3C//DTD SVG 1.1//EN" "http://www.w3.org/Graphics/SVG/1.1/DTD/svg11.dtd">
<svg width="100%" height="100%" viewBox="0 0 2000 2000" version="1.1" xmlns="http://www.w3.org/2000/svg" xmlns:xlink="http://www.w3.org/1999/xlink" xml:space="preserve" xmlns:serif="http://www.serif.com/" style="fill-rule:evenodd;clip-rule:evenodd;stroke-linejoin:round;stroke-miterlimit:2;">
    <g transform="matrix(1.62028,0,0,1.62028,-236.926,-821.623)">
        <circle cx="763.401" cy="1124.26" r="617.176" style="fill:rgb(68,71,162);"/>
    </g>
    <g transform="matrix(10.1785,0,0,10.1785,1000,1078)">
        <g transform="matrix(1,0,0,1,-24,-24)">
            <path d="M22.55,42L22.55,37.8C20.65,37.467 19.092,36.742 17.875,35.625C16.658,34.508 15.783,33.1 15.25,31.4L18.05,30.25C18.617,31.85 19.433,33.042 20.5,33.825C21.567,34.608 22.85,35 24.35,35C25.95,35 27.267,34.6 28.3,33.8C29.333,33 29.85,31.9 29.85,30.5C29.85,29.033 29.392,27.9 28.475,27.1C27.558,26.3 25.833,25.483 23.3,24.65C20.9,23.883 19.108,22.867 17.925,21.6C16.742,20.333 16.15,18.75 16.15,16.85C16.15,15.017 16.742,13.483 17.925,12.25C19.108,11.017 20.65,10.317 22.55,10.15L22.55,6L25.55,6L25.55,10.15C27.05,10.317 28.342,10.808 29.425,11.625C30.508,12.442 31.333,13.483 31.9,14.75L29.1,15.95C28.633,14.883 28.008,14.108 27.225,13.625C26.442,13.142 25.417,12.9 24.15,12.9C22.617,12.9 21.4,13.25 20.5,13.95C19.6,14.65 19.15,15.6 19.15,16.8C19.15,18.067 19.65,19.092 20.65,19.875C21.65,20.658 23.5,21.467 26.2,22.3C28.467,23 30.142,24.008 31.225,25.325C32.308,26.642 32.85,28.3 32.85,30.3C32.85,32.4 32.233,34.092 31,35.375C29.767,36.658 27.95,37.483 25.55,37.85L25.55,42L22.55,42Z" style="fill:white;fill-rule:nonzero;"/>
        </g>
    </g>
    <g transform="matrix(28.6602,0,0,28.6602,1000,1000)">
        <g transform="matrix(1,0,0,1,-24,-24)">
            <path d="M24,44C21.5,44 19.158,43.533 16.975,42.6C14.792,41.667 12.883,40.383 11.25,38.75C9.617,37.117 8.333,35.208 7.4,33.025C6.467,30.842 6,28.5 6,26L9,26C9,30.167 10.458,33.708 13.375,36.625C16.292,39.542 19.833,41 24,41C28.167,41 31.708,39.542 34.625,36.625C37.542,33.708 39,30.167 39,26C39,21.833 37.583,18.292 34.75,15.375C31.917,12.458 28.417,11 24.25,11L23.1,11L26.75,14.65L24.7,16.75L17.35,9.4L24.7,2.05L26.75,4.1L22.85,8L24,8C26.5,8 28.842,8.467 31.025,9.4C33.208,10.333 35.117,11.617 36.75,13.25C38.383,14.883 39.667,16.792 40.6,18.975C41.533,21.158 42,23.5 42,26C42,28.5 41.533,30.842 40.6,33.025C39.667,35.208 38.383,37.117 36.75,38.75C35.117,40.383 33.208,41.667 31.025,42.6C28.842,43.533 26.5,44 24,44Z" style="fill:white;fill-rule:nonzero;"/>
        </g>
    </g>
</svg>
