
<svg width="1920" height="529" viewBox="0 0 1920 529" xmlns="http://www.w3.org/2000/svg" xmlns:xlink="http://www.w3.org/1999/xlink" version="1.1">
    <g>
            <path d="M0,336L45.7,356.8C91.3,377.7 182.7,419.3 274.2,423.2C365.7,427 457.3,393 548.8,392.3C640.3,391.7 731.7,424.3 823,411.5C914.3,398.7 1005.7,340.3 1097,322.7C1188.3,305 1279.7,328 1371.2,348.3C1462.7,368.7 1554.3,386.3 1645.8,395.5C1737.3,404.7 1828.7,405.3 1874.3,405.7L1920,406L1920,0L0,0L0,336Z" style="fill:rgb(35,61,47);fill-rule:nonzero;"/>
            <path d="M0,334L45.7,317.8C91.3,301.7 182.7,269.3 274.2,252C365.7,234.7 457.3,232.3 548.8,245.3C640.3,258.3 731.7,286.7 823,282.5C914.3,278.3 1005.7,241.7 1097,230.2C1188.3,218.7 1279.7,232.3 1371.2,238.7C1462.7,245 1554.3,244 1645.8,262.3C1737.3,280.7 1828.7,318.3 1874.3,337.2L1920,356L1920,0L0,0L0,334Z" style="fill:rgb(42,102,72);fill-rule:nonzero;"/>
            <path d="M0,187L45.7,192.5C91.3,198 182.7,209 274.2,222.3C365.7,235.7 457.3,251.3 548.8,237.5C640.3,223.7 731.7,180.3 823,178.8C914.3,177.3 1005.7,217.7 1097,233.2C1188.3,248.7 1279.7,239.3 1371.2,218.2C1462.7,197 1554.3,164 1645.8,148C1737.3,132 1828.7,133 1874.3,133.5L1920,134L1920,0L0,0L0,187Z" style="fill:rgb(42,146,99);fill-rule:nonzero;"/>
            <path d="M0,61L45.7,62.5C91.3,64 182.7,67 274.2,82.2C365.7,97.3 457.3,124.7 548.8,130.5C640.3,136.3 731.7,120.7 823,107.3C914.3,94 1005.7,83 1097,78.3C1188.3,73.7 1279.7,75.3 1371.2,76.2C1462.7,77 1554.3,77 1645.8,85C1737.3,93 1828.7,109 1874.3,117L1920,125L1920,0L0,0L0,61Z" style="fill:rgb(32,193,127);fill-rule:nonzero;"/>
    </g>
</svg>
