<?xml version="1.0" encoding="UTF-8" standalone="no"?>
<!DOCTYPE svg PUBLIC "-//W3C//DTD SVG 1.1//EN" "http://www.w3.org/Graphics/SVG/1.1/DTD/svg11.dtd">
<svg width="100%" height="100%" viewBox="0 0 30 30" version="1.1" xmlns="http://www.w3.org/2000/svg" xmlns:xlink="http://www.w3.org/1999/xlink" xml:space="preserve" xmlns:serif="http://www.serif.com/" style="fill-rule:evenodd;clip-rule:evenodd;stroke-linejoin:round;stroke-miterlimit:2;">
    <g id="Calque_2">
        <g id="Calque_1-2">
            <g>
                <g>
                    <path d="M10.19,0.02L0.04,0.02L0.04,10.17L0.87,10.17L0.87,0.85L10.19,0.85L10.19,0.02Z" style="fill:rgb(21,21,21);fill-rule:nonzero;"/>
                    <path d="M19.45,29.57L29.59,29.57L29.59,19.43L28.76,19.43L28.76,28.74L19.45,28.74L19.45,29.57Z" style="fill:rgb(21,21,21);fill-rule:nonzero;"/>
                    <g transform="matrix(-1,-7.65714e-16,7.65714e-16,-1,64.52,21.06)">
                        <path d="M37.25,8.8C37.25,8.138 36.712,7.6 36.05,7.6C35.388,7.6 34.85,8.138 34.85,8.8L34.85,19.86C34.85,20.522 35.388,21.06 36.05,21.06C36.712,21.06 37.25,20.522 37.25,19.86L37.25,8.8Z" style="fill:rgb(21,21,21);"/>
                    </g>
                    <g transform="matrix(-1,-7.65714e-16,7.65714e-16,-1,56.35,21.06)">
                        <path d="M33.17,11.85C33.17,11.188 32.632,10.65 31.97,10.65C31.308,10.65 30.77,11.188 30.77,11.85L30.77,16.8C30.77,17.462 31.308,18 31.97,18C32.632,18 33.17,17.462 33.17,16.8L33.17,11.85Z" style="fill:rgb(21,21,21);"/>
                    </g>
                    <path d="M2.4,17.3C2.4,16.638 1.862,16.1 1.2,16.1C0.538,16.1 0,16.638 0,17.3L0,28.36C0,29.022 0.538,29.56 1.2,29.56C1.862,29.56 2.4,29.022 2.4,28.36L2.4,17.3Z" style="fill:rgb(21,21,21);"/>
                    <path d="M6.49,20.35C6.49,19.688 5.952,19.15 5.29,19.15C4.628,19.15 4.09,19.688 4.09,20.35L4.09,25.3C4.09,25.962 4.628,26.5 5.29,26.5C5.952,26.5 6.49,25.962 6.49,25.3L6.49,20.35Z" style="fill:rgb(21,21,21);"/>
                </g>
            </g>
        </g>
    </g>
</svg>
