<?xml version="1.0" encoding="UTF-8"?><svg xmlns="http://www.w3.org/2000/svg" xmlns:xlink="http://www.w3.org/1999/xlink" width="150pt" zoomAndPan="magnify" viewBox="0 0 150 30.000001" height="30.000001pt" preserveAspectRatio="xMidYMid meet" version="1.2"><defs><g/><clipPath xml:id="clip1" id="clip1"><path d="M 96 19 L 102 19 L 102 29 L 96 29 Z M 96 19 "/></clipPath><clipPath xml:id="clip2" id="clip2"><path d="M 94.53125 14.183594 L 103.3125 17.636719 L 98.800781 29.121094 L 90.019531 25.667969 Z M 94.53125 14.183594 "/></clipPath><clipPath xml:id="clip3" id="clip3"><path d="M 94.53125 14.183594 L 103.3125 17.636719 L 98.800781 29.121094 L 90.019531 25.667969 Z M 94.53125 14.183594 "/></clipPath><clipPath xml:id="clip4" id="clip4"><path d="M 98.277344 19.234375 L 102.160156 20.761719 L 98.867188 29.148438 L 94.980469 27.621094 Z M 98.277344 19.234375 "/></clipPath><clipPath xml:id="clip5" id="clip5"><path d="M 98.277344 19.234375 L 102.03125 20.710938 L 98.734375 29.097656 L 94.980469 27.621094 Z M 98.277344 19.234375 "/></clipPath><clipPath xml:id="clip6" id="clip6"><path d="M 91 16 L 103 16 L 103 24 L 91 24 Z M 91 16 "/></clipPath><clipPath xml:id="clip7" id="clip7"><path d="M 94.53125 14.183594 L 103.3125 17.636719 L 98.800781 29.121094 L 90.019531 25.667969 Z M 94.53125 14.183594 "/></clipPath><clipPath xml:id="clip8" id="clip8"><path d="M 94.53125 14.183594 L 103.3125 17.636719 L 98.800781 29.121094 L 90.019531 25.667969 Z M 94.53125 14.183594 "/></clipPath></defs><g xml:id="surface1" id="surface1"><g style="fill:rgb(100%,100%,100%);fill-opacity:1;"><g transform="translate(27.466162, 17.873051)"><path style="stroke:none;" d="M 0.953125 -14.296875 L 9.875 -14.296875 L 9.875 -11.515625 L 4.015625 -11.515625 L 4.015625 -8.921875 L 9.171875 -8.921875 L 9.171875 -6.140625 L 4.015625 -6.140625 L 4.015625 0 L 0.953125 0 Z M 0.953125 -14.296875 "/></g></g><g style="fill:rgb(100%,100%,100%);fill-opacity:1;"><g transform="translate(37.601348, 17.873051)"><path style="stroke:none;" d="M 3.9375 0 L 1.15625 0 L 1.15625 -10 L 3.9375 -10 Z M 2.546875 -11.375 C 2.109375 -11.375 1.738281 -11.519531 1.4375 -11.8125 C 1.144531 -12.101562 1 -12.46875 1 -12.90625 C 1 -13.332031 1.144531 -13.695312 1.4375 -14 C 1.738281 -14.300781 2.109375 -14.453125 2.546875 -14.453125 C 2.972656 -14.453125 3.332031 -14.300781 3.625 -14 C 3.925781 -13.695312 4.078125 -13.332031 4.078125 -12.90625 C 4.078125 -12.46875 3.925781 -12.101562 3.625 -11.8125 C 3.332031 -11.519531 2.972656 -11.375 2.546875 -11.375 Z M 2.546875 -11.375 "/></g></g><g style="fill:rgb(100%,100%,100%);fill-opacity:1;"><g transform="translate(42.699166, 17.873051)"><path style="stroke:none;" d="M 6.109375 -10 C 6.484375 -10 6.898438 -9.941406 7.359375 -9.828125 C 7.816406 -9.722656 8.242188 -9.519531 8.640625 -9.21875 C 9.046875 -8.925781 9.382812 -8.519531 9.65625 -8 C 9.9375 -7.476562 10.078125 -6.800781 10.078125 -5.96875 L 10.078125 0 L 7.28125 0 L 7.28125 -5.859375 C 7.28125 -6.171875 7.226562 -6.429688 7.125 -6.640625 C 7.019531 -6.859375 6.882812 -7.03125 6.71875 -7.15625 C 6.550781 -7.289062 6.359375 -7.382812 6.140625 -7.4375 C 5.929688 -7.5 5.71875 -7.53125 5.5 -7.53125 C 5.320312 -7.53125 5.128906 -7.5 4.921875 -7.4375 C 4.710938 -7.382812 4.519531 -7.289062 4.34375 -7.15625 C 4.164062 -7.019531 4.015625 -6.84375 3.890625 -6.625 C 3.765625 -6.414062 3.703125 -6.160156 3.703125 -5.859375 L 3.703125 0 L 0.921875 0 L 0.921875 -10 L 3.3125 -10 L 3.703125 -9.234375 C 4.023438 -9.460938 4.390625 -9.644531 4.796875 -9.78125 C 5.203125 -9.925781 5.640625 -10 6.109375 -10 Z M 6.109375 -10 "/></g></g><g style="fill:rgb(100%,100%,100%);fill-opacity:1;"><g transform="translate(53.600032, 17.873051)"><path style="stroke:none;" d="M 10.984375 -14.71875 L 10.984375 0 L 8.609375 0 L 8.203125 -0.859375 C 7.890625 -0.546875 7.460938 -0.285156 6.921875 -0.078125 C 6.378906 0.128906 5.8125 0.234375 5.21875 0.234375 C 4.507812 0.234375 3.851562 0.0976562 3.25 -0.171875 C 2.644531 -0.441406 2.125 -0.816406 1.6875 -1.296875 C 1.25 -1.773438 0.90625 -2.332031 0.65625 -2.96875 C 0.40625 -3.613281 0.28125 -4.296875 0.28125 -5.015625 C 0.28125 -5.742188 0.40625 -6.425781 0.65625 -7.0625 C 0.90625 -7.695312 1.25 -8.253906 1.6875 -8.734375 C 2.125 -9.210938 2.644531 -9.585938 3.25 -9.859375 C 3.851562 -10.140625 4.507812 -10.28125 5.21875 -10.28125 C 5.851562 -10.28125 6.414062 -10.207031 6.90625 -10.0625 C 7.394531 -9.914062 7.828125 -9.664062 8.203125 -9.3125 L 8.203125 -14.71875 Z M 8.203125 -4.984375 C 8.203125 -5.503906 8.132812 -5.941406 8 -6.296875 C 7.863281 -6.648438 7.675781 -6.9375 7.4375 -7.15625 C 7.195312 -7.382812 6.914062 -7.546875 6.59375 -7.640625 C 6.28125 -7.742188 5.941406 -7.796875 5.578125 -7.796875 C 5.210938 -7.796875 4.875 -7.722656 4.5625 -7.578125 C 4.25 -7.429688 3.972656 -7.234375 3.734375 -6.984375 C 3.503906 -6.734375 3.320312 -6.4375 3.1875 -6.09375 C 3.050781 -5.75 2.984375 -5.390625 2.984375 -5.015625 C 2.984375 -4.628906 3.050781 -4.265625 3.1875 -3.921875 C 3.320312 -3.585938 3.503906 -3.296875 3.734375 -3.046875 C 3.972656 -2.804688 4.25 -2.609375 4.5625 -2.453125 C 4.875 -2.304688 5.210938 -2.234375 5.578125 -2.234375 C 6.304688 -2.234375 6.921875 -2.457031 7.421875 -2.90625 C 7.929688 -3.363281 8.191406 -4.054688 8.203125 -4.984375 Z M 8.203125 -4.984375 "/></g></g><g style="fill:rgb(100%,100%,100%);fill-opacity:1;"><g transform="translate(65.488217, 17.873051)"><path style="stroke:none;" d="M 13.46875 -14.296875 L 16.34375 -14.296875 L 16.34375 0 L 13.296875 0 L 13.296875 -9.4375 L 9.890625 -4.65625 L 7.453125 -4.65625 L 4.015625 -9.296875 L 4.015625 0 L 0.953125 0 L 0.953125 -14.296875 L 3.84375 -14.296875 L 8.6875 -7.703125 Z M 13.46875 -14.296875 "/></g></g><g style="fill:rgb(100%,100%,100%);fill-opacity:1;"><g transform="translate(82.776462, 17.873051)"><path style="stroke:none;" d="M 8.625 -10 L 11.671875 -10 L 5.359375 3.984375 L 2.3125 3.984375 L 4.796875 -1.515625 L 0.5625 -10 L 3.671875 -10 L 6.265625 -4.78125 Z M 8.625 -10 "/></g></g><g style="fill:rgb(100%,100%,100%);fill-opacity:1;"><g transform="translate(94.684798, 17.873051)"><path style="stroke:none;" d="M 10.03125 -7.359375 C 10.601562 -7.023438 11.035156 -6.59375 11.328125 -6.0625 C 11.617188 -5.539062 11.765625 -4.9375 11.765625 -4.25 C 11.765625 -3.601562 11.609375 -3 11.296875 -2.4375 C 10.992188 -1.882812 10.5625 -1.394531 10 -0.96875 C 9.488281 -0.582031 8.90625 -0.285156 8.25 -0.078125 C 7.601562 0.128906 6.914062 0.242188 6.1875 0.265625 C 5.457031 0.265625 4.765625 0.164062 4.109375 -0.03125 C 3.453125 -0.238281 2.867188 -0.546875 2.359375 -0.953125 C 1.585938 -1.523438 1.0625 -2.222656 0.78125 -3.046875 L 3.609375 -4.359375 C 3.609375 -4.222656 3.65625 -4.050781 3.75 -3.84375 C 3.84375 -3.644531 3.988281 -3.453125 4.1875 -3.265625 C 4.394531 -3.078125 4.660156 -2.914062 4.984375 -2.78125 C 5.304688 -2.644531 5.703125 -2.578125 6.171875 -2.578125 C 6.546875 -2.578125 6.875 -2.625 7.15625 -2.71875 C 7.445312 -2.8125 7.691406 -2.925781 7.890625 -3.0625 C 8.085938 -3.207031 8.234375 -3.367188 8.328125 -3.546875 C 8.429688 -3.734375 8.484375 -3.921875 8.484375 -4.109375 C 8.484375 -4.328125 8.410156 -4.53125 8.265625 -4.71875 C 8.128906 -4.90625 7.914062 -5.050781 7.625 -5.15625 C 7.082031 -5.34375 6.507812 -5.5 5.90625 -5.625 C 5.3125 -5.757812 4.734375 -5.921875 4.171875 -6.109375 C 3.609375 -6.304688 3.082031 -6.566406 2.59375 -6.890625 C 2.113281 -7.210938 1.734375 -7.664062 1.453125 -8.25 C 1.191406 -8.757812 1.0625 -9.300781 1.0625 -9.875 C 1.0625 -10.519531 1.210938 -11.144531 1.515625 -11.75 C 1.816406 -12.351562 2.234375 -12.863281 2.765625 -13.28125 C 3.253906 -13.675781 3.804688 -13.976562 4.421875 -14.1875 C 5.046875 -14.394531 5.703125 -14.5 6.390625 -14.5 C 7.078125 -14.5 7.734375 -14.394531 8.359375 -14.1875 C 8.984375 -13.988281 9.539062 -13.691406 10.03125 -13.296875 C 10.519531 -12.941406 10.90625 -12.519531 11.1875 -12.03125 L 8.890625 -10.46875 C 8.609375 -10.851562 8.253906 -11.160156 7.828125 -11.390625 C 7.410156 -11.628906 6.9375 -11.75 6.40625 -11.75 C 5.6875 -11.75 5.125 -11.585938 4.71875 -11.265625 C 4.320312 -10.941406 4.125 -10.519531 4.125 -10 C 4.125 -9.757812 4.234375 -9.539062 4.453125 -9.34375 C 4.679688 -9.15625 4.972656 -8.988281 5.328125 -8.84375 C 5.679688 -8.695312 6.082031 -8.566406 6.53125 -8.453125 C 6.976562 -8.335938 7.414062 -8.222656 7.84375 -8.109375 C 8.28125 -7.992188 8.691406 -7.875 9.078125 -7.75 C 9.472656 -7.632812 9.789062 -7.503906 10.03125 -7.359375 Z M 10.03125 -7.359375 "/></g></g><g style="fill:rgb(100%,100%,100%);fill-opacity:1;"><g transform="translate(107.096875, 17.873051)"><path style="stroke:none;" d="M 4.59375 -3.59375 C 4.59375 -3.113281 4.738281 -2.742188 5.03125 -2.484375 C 5.320312 -2.234375 5.703125 -2.109375 6.171875 -2.109375 C 6.546875 -2.109375 6.921875 -2.1875 7.296875 -2.34375 L 7.296875 0 C 6.960938 0.101562 6.601562 0.191406 6.21875 0.265625 C 5.84375 0.347656 5.46875 0.390625 5.09375 0.390625 C 4.664062 0.390625 4.253906 0.332031 3.859375 0.21875 C 3.472656 0.113281 3.125 -0.0664062 2.8125 -0.328125 C 2.507812 -0.585938 2.265625 -0.9375 2.078125 -1.375 C 1.898438 -1.8125 1.8125 -2.351562 1.8125 -3 L 1.8125 -7.515625 L 0.390625 -7.515625 L 0.390625 -9.390625 L 1.8125 -10 L 1.8125 -12.234375 L 4.59375 -12.234375 L 4.59375 -10 L 7.296875 -10 L 7.296875 -7.515625 L 4.59375 -7.515625 Z M 4.59375 -3.59375 "/></g></g><g style="fill:rgb(100%,100%,100%);fill-opacity:1;"><g transform="translate(114.814121, 17.873051)"><path style="stroke:none;" d="M 7.234375 -10 L 10.015625 -10 L 10.015625 0 L 7.640625 0 L 7.234375 -0.765625 C 6.910156 -0.535156 6.539062 -0.347656 6.125 -0.203125 C 5.71875 -0.0664062 5.28125 0 4.8125 0 C 4.445312 0 4.03125 -0.0507812 3.5625 -0.15625 C 3.101562 -0.269531 2.671875 -0.472656 2.265625 -0.765625 C 1.867188 -1.054688 1.53125 -1.460938 1.25 -1.984375 C 0.976562 -2.515625 0.84375 -3.195312 0.84375 -4.03125 L 0.84375 -10 L 3.640625 -10 L 3.640625 -4.125 C 3.640625 -3.820312 3.691406 -3.5625 3.796875 -3.34375 C 3.898438 -3.125 4.035156 -2.953125 4.203125 -2.828125 C 4.367188 -2.703125 4.554688 -2.609375 4.765625 -2.546875 C 4.984375 -2.484375 5.207031 -2.453125 5.4375 -2.453125 C 5.613281 -2.453125 5.804688 -2.484375 6.015625 -2.546875 C 6.222656 -2.609375 6.414062 -2.707031 6.59375 -2.84375 C 6.78125 -2.976562 6.929688 -3.148438 7.046875 -3.359375 C 7.171875 -3.578125 7.234375 -3.832031 7.234375 -4.125 Z M 7.234375 -10 "/></g></g><g style="fill:rgb(100%,100%,100%);fill-opacity:1;"><g transform="translate(125.755282, 17.873051)"><path style="stroke:none;" d="M 1.6875 -10.84375 C 1.6875 -11.539062 1.789062 -12.140625 2 -12.640625 C 2.207031 -13.148438 2.484375 -13.566406 2.828125 -13.890625 C 3.179688 -14.222656 3.585938 -14.46875 4.046875 -14.625 C 4.503906 -14.78125 4.988281 -14.859375 5.5 -14.859375 C 5.8125 -14.859375 6.117188 -14.828125 6.421875 -14.765625 C 6.734375 -14.710938 7.046875 -14.632812 7.359375 -14.53125 L 7.140625 -12.5 L 6.46875 -12.59375 C 6.363281 -12.613281 6.265625 -12.625 6.171875 -12.625 C 6.085938 -12.632812 6.003906 -12.640625 5.921875 -12.640625 C 5.410156 -12.640625 5.035156 -12.515625 4.796875 -12.265625 C 4.566406 -12.015625 4.453125 -11.65625 4.453125 -11.1875 L 4.453125 -10 L 7.140625 -10 L 7.140625 -7.515625 L 4.453125 -7.515625 L 4.453125 0 L 1.6875 0 L 1.6875 -7.515625 L 0.390625 -7.515625 L 0.390625 -8.984375 L 1.6875 -10 Z M 1.6875 -10.84375 "/></g></g><g style="fill:rgb(100%,100%,100%);fill-opacity:1;"><g transform="translate(133.391938, 17.873051)"><path style="stroke:none;" d="M 1.6875 -10.84375 C 1.6875 -11.539062 1.789062 -12.140625 2 -12.640625 C 2.207031 -13.148438 2.484375 -13.566406 2.828125 -13.890625 C 3.179688 -14.222656 3.585938 -14.46875 4.046875 -14.625 C 4.503906 -14.78125 4.988281 -14.859375 5.5 -14.859375 C 5.8125 -14.859375 6.117188 -14.828125 6.421875 -14.765625 C 6.734375 -14.710938 7.046875 -14.632812 7.359375 -14.53125 L 7.140625 -12.5 L 6.46875 -12.59375 C 6.363281 -12.613281 6.265625 -12.625 6.171875 -12.625 C 6.085938 -12.632812 6.003906 -12.640625 5.921875 -12.640625 C 5.410156 -12.640625 5.035156 -12.515625 4.796875 -12.265625 C 4.566406 -12.015625 4.453125 -11.65625 4.453125 -11.1875 L 4.453125 -10 L 7.140625 -10 L 7.140625 -7.515625 L 4.453125 -7.515625 L 4.453125 0 L 1.6875 0 L 1.6875 -7.515625 L 0.390625 -7.515625 L 0.390625 -8.984375 L 1.6875 -10 Z M 1.6875 -10.84375 "/></g></g><g style="fill:rgb(100%,100%,100%);fill-opacity:1;"><g transform="translate(141.028581, 17.873051)"><path style="stroke:none;" d="M 2.5 -2.90625 C 2.925781 -2.90625 3.289062 -2.753906 3.59375 -2.453125 C 3.894531 -2.160156 4.046875 -1.800781 4.046875 -1.375 C 4.046875 -0.9375 3.894531 -0.570312 3.59375 -0.28125 C 3.289062 0.0078125 2.925781 0.15625 2.5 0.15625 C 2.070312 0.15625 1.707031 0.0078125 1.40625 -0.28125 C 1.113281 -0.570312 0.96875 -0.9375 0.96875 -1.375 C 0.96875 -1.800781 1.113281 -2.160156 1.40625 -2.453125 C 1.707031 -2.753906 2.070312 -2.90625 2.5 -2.90625 Z M 2.5 -2.90625 "/></g></g><g clip-rule="nonzero" clip-path="url(#clip1)"><g clip-rule="nonzero" clip-path="url(#clip2)"><g clip-rule="nonzero" clip-path="url(#clip3)"><g clip-rule="nonzero" clip-path="url(#clip4)"><g clip-rule="nonzero" clip-path="url(#clip5)"><path style=" stroke:none;fill-rule:nonzero;fill:rgb(100%,100%,100%);fill-opacity:1;" d="M 99.402344 24.058594 C 100.492188 24.03125 101.378906 23.09375 101.382812 21.964844 C 101.390625 20.839844 100.511719 19.949219 99.421875 19.980469 C 99.0625 19.988281 98.710938 20.097656 98.402344 20.296875 C 98.628906 20.683594 98.96875 20.980469 99.371094 21.152344 L 100.371094 21.546875 C 100.570312 21.625 100.667969 21.863281 100.582031 22.074219 C 100.5 22.28125 100.269531 22.390625 100.070312 22.3125 L 98.984375 21.886719 C 98.484375 21.738281 98.042969 21.445312 97.710938 21.035156 C 97.289062 21.78125 97.355469 22.707031 97.875 23.355469 L 96.265625 27.453125 C 96.164062 27.707031 96.234375 27.996094 96.4375 28.160156 L 98.066406 24.023438 L 98.347656 24.132812 L 96.707031 28.296875 L 96.835938 28.347656 C 97.144531 28.46875 97.496094 28.308594 97.621094 27.984375 L 97.683594 27.828125 L 98.167969 27.589844 L 98.015625 27.191406 L 98.398438 27 L 98.246094 26.601562 L 98.628906 26.410156 L 98.480469 26.011719 L 98.863281 25.820312 L 98.710938 25.421875 L 99.09375 25.230469 L 98.945312 24.832031 L 99.394531 24.613281 L 99.402344 24.058594 "/></g></g></g></g></g><g clip-rule="nonzero" clip-path="url(#clip6)"><g clip-rule="nonzero" clip-path="url(#clip7)"><g clip-rule="nonzero" clip-path="url(#clip8)"><path style=" stroke:none;fill-rule:nonzero;fill:rgb(100%,100%,100%);fill-opacity:1;" d="M 99.316406 19.609375 C 99.039062 19.046875 98.519531 18.65625 97.910156 18.558594 C 98.304688 17.484375 99.457031 16.914062 100.484375 17.285156 C 101.515625 17.65625 102.03125 18.832031 101.640625 19.90625 C 101.558594 20.128906 101.441406 20.339844 101.289062 20.523438 C 101.367188 20.625 101.433594 20.734375 101.492188 20.851562 C 102.382812 19.84375 102.339844 18.300781 101.390625 17.410156 C 100.445312 16.515625 98.953125 16.609375 98.058594 17.617188 C 97.824219 17.882812 97.644531 18.195312 97.535156 18.535156 C 96.53125 18.578125 95.691406 19.390625 95.585938 20.425781 L 91.675781 22.238281 C 91.410156 22.359375 91.257812 22.660156 91.320312 22.953125 L 95.113281 21.199219 L 95.230469 21.480469 L 91.425781 23.242188 L 91.457031 23.308594 C 91.582031 23.621094 91.933594 23.761719 92.242188 23.617188 L 92.390625 23.550781 L 92.886719 23.726562 L 93.054688 23.324219 L 93.449219 23.464844 L 93.621094 23.066406 L 94.011719 23.207031 L 94.179688 22.804688 L 94.574219 22.945312 L 94.742188 22.542969 L 95.136719 22.683594 L 95.308594 22.285156 L 95.765625 22.453125 L 96.148438 22.054688 C 96.414062 22.324219 96.75 22.507812 97.121094 22.582031 C 96.984375 21.90625 97.136719 21.195312 97.539062 20.628906 L 97.246094 19.90625 C 97.167969 19.71875 97.242188 19.492188 97.417969 19.386719 C 97.445312 20.296875 97.964844 21.101562 98.761719 21.464844 C 98.828125 21.359375 98.886719 21.246094 98.933594 21.128906 C 98.253906 20.820312 97.804688 20.140625 97.78125 19.363281 C 97.867188 19.402344 97.9375 19.476562 97.976562 19.570312 L 98.160156 20.019531 C 98.507812 19.78125 98.90625 19.636719 99.316406 19.609375 "/></g></g></g><path style=" stroke:none;fill-rule:nonzero;fill:rgb(100%,100%,100%);fill-opacity:1;" d="M 10.058594 3.140625 L 5.003906 3.140625 L 5.003906 9.28125 L 5.507812 9.28125 L 5.507812 3.644531 L 11.144531 3.644531 L 11.144531 3.140625 Z M 10.058594 3.140625 "/><path style=" stroke:none;fill-rule:nonzero;fill:rgb(100%,100%,100%);fill-opacity:1;" d="M 15.53125 18.722656 L 20.585938 18.722656 L 20.585938 12.582031 L 20.082031 12.582031 L 20.082031 18.21875 L 14.445312 18.21875 L 14.445312 18.722656 Z M 15.53125 18.722656 "/><path style="fill:none;stroke-width:1;stroke-linecap:round;stroke-linejoin:miter;stroke:rgb(100%,100%,100%);stroke-opacity:1;stroke-miterlimit:4;" d="M 0.49919 -0.000592912 L 4.152678 -0.000592912 " transform="matrix(0.000000000000000103,1.680756,-1.715332,0.000000000000000105,5.780233,10.934421)"/><path style="fill:none;stroke-width:1;stroke-linecap:round;stroke-linejoin:miter;stroke:rgb(100%,100%,100%);stroke-opacity:1;stroke-miterlimit:4;" d="M 0.499685 -0.000225707 L 2.092592 -0.000225707 " transform="matrix(0.000000000000000106,1.723952,-1.670778,0.000000000000000102,8.855092,12.658098)"/><path style="fill:none;stroke-width:1;stroke-linecap:round;stroke-linejoin:miter;stroke:rgb(100%,100%,100%);stroke-opacity:1;stroke-miterlimit:4;" d="M 0.500765 0.00089078 L 4.151929 0.00089078 " transform="matrix(0.000000000000000103,-1.680756,1.715332,0.000000000000000105,19.810972,10.931507)"/><path style="fill:none;stroke-width:1;stroke-linecap:round;stroke-linejoin:miter;stroke:rgb(100%,100%,100%);stroke-opacity:1;stroke-miterlimit:4;" d="M 0.499343 -0.000968147 L 2.09225 -0.000968147 " transform="matrix(0.000000000000000106,-1.723952,1.670778,0.000000000000000102,16.735993,9.204594)"/></g></svg>