<svg xmlns="http://www.w3.org/2000/svg" xmlns:xlink="http://www.w3.org/1999/xlink" width="2000" zoomAndPan="magnify" viewBox="0 0 1500 299.999988" height="400" preserveAspectRatio="xMidYMid meet" version="1.0"><defs><g/><clipPath id="id1"><path d="M 37.136719 58.6875 L 99.691406 58.6875 L 99.691406 121.242188 L 37.136719 121.242188 Z M 37.136719 58.6875 " clip-rule="nonzero"/></clipPath><clipPath id="id2"><path d="M 133.300781 154.851562 L 195.851562 154.851562 L 195.851562 217.402344 L 133.300781 217.402344 Z M 133.300781 154.851562 " clip-rule="nonzero"/></clipPath></defs><g fill="#ffffff" fill-opacity="1"><g transform="translate(251.122826, 208.738698)"><g><path d="M 9.640625 -145.5 L 100.5625 -145.5 L 100.5625 -117.1875 L 40.84375 -117.1875 L 40.84375 -90.90625 L 93.375 -90.90625 L 93.375 -62.59375 L 40.84375 -62.59375 L 40.84375 0 L 9.640625 0 Z M 9.640625 -145.5 "/></g></g></g><g fill="#ffffff" fill-opacity="1"><g transform="translate(354.341474, 208.738698)"><g><path d="M 40.015625 0 L 11.703125 0 L 11.703125 -101.78125 L 40.015625 -101.78125 Z M 25.859375 -115.75 C 21.484375 -115.75 17.789062 -117.25 14.78125 -120.25 C 11.769531 -123.257812 10.265625 -126.957031 10.265625 -131.34375 C 10.265625 -135.71875 11.769531 -139.441406 14.78125 -142.515625 C 17.789062 -145.597656 21.484375 -147.140625 25.859375 -147.140625 C 30.234375 -147.140625 33.925781 -145.597656 36.9375 -142.515625 C 39.945312 -139.441406 41.453125 -135.71875 41.453125 -131.34375 C 41.453125 -126.957031 39.945312 -123.257812 36.9375 -120.25 C 33.925781 -117.25 30.234375 -115.75 25.859375 -115.75 Z M 25.859375 -115.75 "/></g></g></g><g fill="#ffffff" fill-opacity="1"><g transform="translate(406.258625, 208.738698)"><g><path d="M 62.1875 -101.78125 C 66.007812 -101.78125 70.242188 -101.234375 74.890625 -100.140625 C 79.546875 -99.046875 83.925781 -96.992188 88.03125 -93.984375 C 92.144531 -90.972656 95.601562 -86.800781 98.40625 -81.46875 C 101.207031 -76.132812 102.609375 -69.226562 102.609375 -60.75 L 102.609375 0 L 74.078125 0 L 74.078125 -59.71875 C 74.078125 -62.863281 73.5625 -65.53125 72.53125 -67.71875 C 71.507812 -69.90625 70.144531 -71.648438 68.4375 -72.953125 C 66.726562 -74.253906 64.78125 -75.210938 62.59375 -75.828125 C 60.40625 -76.441406 58.21875 -76.75 56.03125 -76.75 C 54.25 -76.75 52.296875 -76.441406 50.171875 -75.828125 C 48.054688 -75.210938 46.070312 -74.21875 44.21875 -72.84375 C 42.375 -71.476562 40.835938 -69.703125 39.609375 -67.515625 C 38.378906 -65.328125 37.765625 -62.726562 37.765625 -59.71875 L 37.765625 0 L 9.4375 0 L 9.4375 -101.78125 L 33.65625 -101.78125 L 37.765625 -93.984375 C 41.046875 -96.316406 44.738281 -98.195312 48.84375 -99.625 C 52.945312 -101.0625 57.394531 -101.78125 62.1875 -101.78125 Z M 62.1875 -101.78125 "/></g></g></g><g fill="#ffffff" fill-opacity="1"><g transform="translate(517.275111, 208.738698)"><g><path d="M 111.84375 -149.8125 L 111.84375 0 L 87.625 0 L 83.53125 -8.828125 C 80.375 -5.546875 76.023438 -2.84375 70.484375 -0.71875 C 64.953125 1.40625 59.175781 2.46875 53.15625 2.46875 C 45.90625 2.46875 39.203125 1.066406 33.046875 -1.734375 C 26.890625 -4.546875 21.585938 -8.378906 17.140625 -13.234375 C 12.691406 -18.085938 9.203125 -23.765625 6.671875 -30.265625 C 4.140625 -36.765625 2.875 -43.707031 2.875 -51.09375 C 2.875 -58.488281 4.140625 -65.429688 6.671875 -71.921875 C 9.203125 -78.421875 12.691406 -84.097656 17.140625 -88.953125 C 21.585938 -93.816406 26.890625 -97.648438 33.046875 -100.453125 C 39.203125 -103.253906 45.90625 -104.65625 53.15625 -104.65625 C 59.582031 -104.65625 65.289062 -103.898438 70.28125 -102.390625 C 75.28125 -100.890625 79.695312 -98.363281 83.53125 -94.8125 L 83.53125 -149.8125 Z M 83.53125 -50.6875 C 83.53125 -56.019531 82.84375 -60.5 81.46875 -64.125 C 80.101562 -67.75 78.1875 -70.691406 75.71875 -72.953125 C 73.257812 -75.210938 70.421875 -76.851562 67.203125 -77.875 C 63.992188 -78.90625 60.539062 -79.421875 56.84375 -79.421875 C 53.15625 -79.421875 49.703125 -78.664062 46.484375 -77.15625 C 43.265625 -75.65625 40.457031 -73.640625 38.0625 -71.109375 C 35.675781 -68.578125 33.796875 -65.566406 32.421875 -62.078125 C 31.054688 -58.585938 30.375 -54.925781 30.375 -51.09375 C 30.375 -47.125 31.054688 -43.429688 32.421875 -40.015625 C 33.796875 -36.597656 35.675781 -33.625 38.0625 -31.09375 C 40.457031 -28.5625 43.265625 -26.539062 46.484375 -25.03125 C 49.703125 -23.53125 53.15625 -22.78125 56.84375 -22.78125 C 64.226562 -22.78125 70.484375 -25.070312 75.609375 -29.65625 C 80.742188 -34.238281 83.382812 -41.25 83.53125 -50.6875 Z M 83.53125 -50.6875 "/></g></g></g><g fill="#ffffff" fill-opacity="1"><g transform="translate(638.34664, 208.738698)"><g><path d="M 137.09375 -145.5 L 166.4375 -145.5 L 166.4375 0 L 135.4375 0 L 135.4375 -96.046875 L 100.765625 -47.40625 L 75.9375 -47.40625 L 40.84375 -94.609375 L 40.84375 0 L 9.640625 0 L 9.640625 -145.5 L 39.203125 -145.5 L 88.453125 -78.390625 Z M 137.09375 -145.5 "/></g></g></g><g fill="#ffffff" fill-opacity="1"><g transform="translate(814.413402, 208.738698)"><g><path d="M 87.828125 -101.78125 L 118.828125 -101.78125 L 54.59375 40.640625 L 23.59375 40.640625 L 48.84375 -15.390625 L 5.75 -101.78125 L 37.34375 -101.78125 L 63.828125 -48.640625 Z M 87.828125 -101.78125 "/></g></g></g><g fill="#ffffff" fill-opacity="1"><g transform="translate(935.690148, 208.738698)"><g><path d="M 102.203125 -74.90625 C 107.941406 -71.488281 112.316406 -67.109375 115.328125 -61.765625 C 118.335938 -56.429688 119.84375 -50.273438 119.84375 -43.296875 C 119.84375 -36.734375 118.269531 -30.613281 115.125 -24.9375 C 111.976562 -19.257812 107.53125 -14.226562 101.78125 -9.84375 C 96.582031 -5.882812 90.664062 -2.84375 84.03125 -0.71875 C 77.394531 1.40625 70.382812 2.535156 63 2.671875 C 55.613281 2.671875 48.566406 1.644531 41.859375 -0.40625 C 35.160156 -2.457031 29.210938 -5.535156 24.015625 -9.640625 C 16.210938 -15.523438 10.875 -22.640625 8 -30.984375 L 36.734375 -44.328125 C 36.734375 -42.960938 37.210938 -41.253906 38.171875 -39.203125 C 39.128906 -37.148438 40.632812 -35.164062 42.6875 -33.25 C 44.738281 -31.332031 47.40625 -29.6875 50.6875 -28.3125 C 53.96875 -26.945312 58.003906 -26.265625 62.796875 -26.265625 C 66.628906 -26.265625 70.015625 -26.742188 72.953125 -27.703125 C 75.898438 -28.660156 78.363281 -29.859375 80.34375 -31.296875 C 82.320312 -32.734375 83.820312 -34.375 84.84375 -36.21875 C 85.875 -38.0625 86.390625 -39.941406 86.390625 -41.859375 C 86.390625 -44.046875 85.671875 -46.097656 84.234375 -48.015625 C 82.804688 -49.929688 80.585938 -51.4375 77.578125 -52.53125 C 72.097656 -54.445312 66.3125 -56.054688 60.21875 -57.359375 C 54.132812 -58.660156 48.21875 -60.300781 42.46875 -62.28125 C 36.726562 -64.269531 31.394531 -66.90625 26.46875 -70.1875 C 21.539062 -73.46875 17.644531 -78.050781 14.78125 -83.9375 C 12.175781 -89.132812 10.875 -94.675781 10.875 -100.5625 C 10.875 -107.125 12.410156 -113.484375 15.484375 -119.640625 C 18.566406 -125.796875 22.773438 -130.992188 28.109375 -135.234375 C 33.171875 -139.203125 38.847656 -142.242188 45.140625 -144.359375 C 51.441406 -146.484375 58.078125 -147.546875 65.046875 -147.546875 C 72.023438 -147.546875 78.695312 -146.519531 85.0625 -144.46875 C 91.425781 -142.414062 97.140625 -139.40625 102.203125 -135.4375 C 107.128906 -131.75 111.023438 -127.441406 113.890625 -122.515625 L 90.5 -106.515625 C 87.625 -110.472656 84.03125 -113.648438 79.71875 -116.046875 C 75.414062 -118.441406 70.597656 -119.640625 65.265625 -119.640625 C 57.867188 -119.640625 52.148438 -118 48.109375 -114.71875 C 44.078125 -111.4375 42.0625 -107.125 42.0625 -101.78125 C 42.0625 -99.320312 43.191406 -97.132812 45.453125 -95.21875 C 47.710938 -93.300781 50.65625 -91.585938 54.28125 -90.078125 C 57.90625 -88.578125 61.972656 -87.242188 66.484375 -86.078125 C 71.003906 -84.921875 75.488281 -83.757812 79.9375 -82.59375 C 84.382812 -81.4375 88.585938 -80.238281 92.546875 -79 C 96.515625 -77.769531 99.734375 -76.40625 102.203125 -74.90625 Z M 102.203125 -74.90625 "/></g></g></g><g fill="#ffffff" fill-opacity="1"><g transform="translate(1062.097089, 208.738698)"><g><path d="M 46.796875 -36.53125 C 46.796875 -31.738281 48.265625 -28.039062 51.203125 -25.4375 C 54.140625 -22.84375 58.003906 -21.546875 62.796875 -21.546875 C 66.628906 -21.546875 70.460938 -22.300781 74.296875 -23.8125 L 74.296875 0 C 70.867188 1.09375 67.238281 2.015625 63.40625 2.765625 C 59.582031 3.523438 55.753906 3.90625 51.921875 3.90625 C 47.546875 3.90625 43.375 3.351562 39.40625 2.25 C 35.4375 1.15625 31.878906 -0.722656 28.734375 -3.390625 C 25.585938 -6.054688 23.085938 -9.613281 21.234375 -14.0625 C 19.390625 -18.507812 18.46875 -24.015625 18.46875 -30.578125 L 18.46875 -76.546875 L 3.90625 -76.546875 L 3.90625 -95.625 L 18.46875 -101.78125 L 18.46875 -124.5625 L 46.796875 -124.5625 L 46.796875 -101.78125 L 74.296875 -101.78125 L 74.296875 -76.546875 L 46.796875 -76.546875 Z M 46.796875 -36.53125 "/></g></g></g><g fill="#ffffff" fill-opacity="1"><g transform="translate(1140.690984, 208.738698)"><g><path d="M 73.671875 -101.78125 L 102 -101.78125 L 102 0 L 77.78125 0 L 73.671875 -7.796875 C 70.390625 -5.472656 66.660156 -3.59375 62.484375 -2.15625 C 58.316406 -0.71875 53.835938 0 49.046875 0 C 45.347656 0 41.140625 -0.546875 36.421875 -1.640625 C 31.703125 -2.734375 27.289062 -4.785156 23.1875 -7.796875 C 19.082031 -10.804688 15.628906 -14.976562 12.828125 -20.3125 C 10.023438 -25.644531 8.625 -32.554688 8.625 -41.046875 L 8.625 -101.78125 L 37.140625 -101.78125 L 37.140625 -42.0625 C 37.140625 -38.914062 37.648438 -36.25 38.671875 -34.0625 C 39.703125 -31.875 41.070312 -30.128906 42.78125 -28.828125 C 44.5 -27.535156 46.453125 -26.578125 48.640625 -25.953125 C 50.828125 -25.335938 53.082031 -25.03125 55.40625 -25.03125 C 57.1875 -25.03125 59.132812 -25.335938 61.25 -25.953125 C 63.375 -26.578125 65.359375 -27.570312 67.203125 -28.9375 C 69.054688 -30.300781 70.597656 -32.078125 71.828125 -34.265625 C 73.054688 -36.460938 73.671875 -39.0625 73.671875 -42.0625 Z M 73.671875 -101.78125 "/></g></g></g><g fill="#ffffff" fill-opacity="1"><g transform="translate(1252.117842, 208.738698)"><g><path d="M 17.234375 -110.40625 C 17.234375 -117.519531 18.289062 -123.640625 20.40625 -128.765625 C 22.53125 -133.898438 25.367188 -138.144531 28.921875 -141.5 C 32.484375 -144.851562 36.585938 -147.316406 41.234375 -148.890625 C 45.890625 -150.460938 50.820312 -151.25 56.03125 -151.25 C 59.175781 -151.25 62.320312 -150.972656 65.46875 -150.421875 C 68.613281 -149.878906 71.757812 -149.0625 74.90625 -147.96875 L 72.640625 -127.234375 L 65.875 -128.265625 C 64.78125 -128.398438 63.785156 -128.5 62.890625 -128.5625 C 62.003906 -128.632812 61.148438 -128.671875 60.328125 -128.671875 C 55.128906 -128.671875 51.332031 -127.40625 48.9375 -124.875 C 46.550781 -122.34375 45.359375 -118.679688 45.359375 -113.890625 L 45.359375 -101.78125 L 72.640625 -101.78125 L 72.640625 -76.546875 L 45.359375 -76.546875 L 45.359375 0 L 17.234375 0 L 17.234375 -76.546875 L 3.90625 -76.546875 L 3.90625 -91.53125 L 17.234375 -101.78125 Z M 17.234375 -110.40625 "/></g></g></g><g fill="#ffffff" fill-opacity="1"><g transform="translate(1329.890991, 208.738698)"><g><path d="M 17.234375 -110.40625 C 17.234375 -117.519531 18.289062 -123.640625 20.40625 -128.765625 C 22.53125 -133.898438 25.367188 -138.144531 28.921875 -141.5 C 32.484375 -144.851562 36.585938 -147.316406 41.234375 -148.890625 C 45.890625 -150.460938 50.820312 -151.25 56.03125 -151.25 C 59.175781 -151.25 62.320312 -150.972656 65.46875 -150.421875 C 68.613281 -149.878906 71.757812 -149.0625 74.90625 -147.96875 L 72.640625 -127.234375 L 65.875 -128.265625 C 64.78125 -128.398438 63.785156 -128.5 62.890625 -128.5625 C 62.003906 -128.632812 61.148438 -128.671875 60.328125 -128.671875 C 55.128906 -128.671875 51.332031 -127.40625 48.9375 -124.875 C 46.550781 -122.34375 45.359375 -118.679688 45.359375 -113.890625 L 45.359375 -101.78125 L 72.640625 -101.78125 L 72.640625 -76.546875 L 45.359375 -76.546875 L 45.359375 0 L 17.234375 0 L 17.234375 -76.546875 L 3.90625 -76.546875 L 3.90625 -91.53125 L 17.234375 -101.78125 Z M 17.234375 -110.40625 "/></g></g></g><g fill="#ffffff" fill-opacity="1"><g transform="translate(1407.664014, 208.738698)"><g><path d="M 25.453125 -29.546875 C 29.828125 -29.546875 33.550781 -28.039062 36.625 -25.03125 C 39.707031 -22.019531 41.25 -18.328125 41.25 -13.953125 C 41.25 -9.578125 39.707031 -5.882812 36.625 -2.875 C 33.550781 0.132812 29.828125 1.640625 25.453125 1.640625 C 21.066406 1.640625 17.367188 0.132812 14.359375 -2.875 C 11.347656 -5.882812 9.84375 -9.578125 9.84375 -13.953125 C 9.84375 -18.328125 11.347656 -22.019531 14.359375 -25.03125 C 17.367188 -28.039062 21.066406 -29.546875 25.453125 -29.546875 Z M 25.453125 -29.546875 "/></g></g></g><g clip-path="url(#id1)"><path fill="#ffffff" d="M 88.636719 58.6875 L 37.136719 58.6875 L 37.136719 121.242188 L 42.277344 121.242188 L 42.277344 63.828125 L 99.691406 63.828125 L 99.691406 58.6875 L 88.636719 58.6875 " fill-opacity="1" fill-rule="nonzero"/></g><g clip-path="url(#id2)"><path fill="#ffffff" d="M 144.355469 217.402344 L 195.851562 217.402344 L 195.851562 154.851562 L 190.710938 154.851562 L 190.710938 212.261719 L 133.300781 212.261719 L 133.300781 217.402344 L 144.355469 217.402344 " fill-opacity="1" fill-rule="nonzero"/></g><path stroke-linecap="round" transform="matrix(0.000000000000001048, 17.117145, -17.469269, 0.00000000000000107, 45.052702, 138.074403)" fill="none" stroke-linejoin="miter" d="M 0.49999 0.000109923 L 4.15267 0.000109923 " stroke="#ffffff" stroke-width="1" stroke-opacity="1" stroke-miterlimit="4"/><path stroke-linecap="round" transform="matrix(0.000000000000001075, 17.557054, -17.015523, 0.000000000000001042, 76.367647, 155.628664)" fill="none" stroke-linejoin="miter" d="M 0.499946 0.0000270026 L 2.092967 0.0000270026 " stroke="#ffffff" stroke-width="1" stroke-opacity="1" stroke-miterlimit="4"/><path stroke-linecap="round" transform="matrix(0.000000000000001048, -17.117145, 17.469269, 0.00000000000000107, 187.944418, 138.044725)" fill="none" stroke-linejoin="miter" d="M 0.500104 0.0000512127 L 4.152783 0.0000512127 " stroke="#ffffff" stroke-width="1" stroke-opacity="1" stroke-miterlimit="4"/><path stroke-linecap="round" transform="matrix(0.000000000000001075, -17.557054, 17.015523, 0.000000000000001042, 156.628244, 120.457512)" fill="none" stroke-linejoin="miter" d="M 0.49996 0.0000389433 L 2.092981 0.0000389433 " stroke="#ffffff" stroke-width="1" stroke-opacity="1" stroke-miterlimit="4"/></svg>