<?xml version="1.0" encoding="UTF-8"?><svg xmlns="http://www.w3.org/2000/svg" xmlns:xlink="http://www.w3.org/1999/xlink" width="375" zoomAndPan="magnify" viewBox="0 0 375 374.999991" height="374.999991" preserveAspectRatio="xMidYMid meet" version="1.0"><path fill="rgb(100%, 100%, 100%)" d="M 136.949219 65.324219 L 65.324219 65.324219 L 65.324219 152.324219 L 72.472656 152.324219 L 72.472656 72.472656 L 152.324219 72.472656 L 152.324219 65.324219 Z M 136.949219 65.324219 " fill-opacity="1" fill-rule="nonzero"/><path fill="rgb(100%, 100%, 100%)" d="M 247.046875 318.675781 L 318.675781 318.675781 L 318.675781 231.675781 L 311.523438 231.675781 L 311.523438 311.523438 L 231.675781 311.523438 L 231.675781 318.675781 Z M 247.046875 318.675781 " fill-opacity="1" fill-rule="nonzero"/><path stroke-linecap="round" transform="matrix(0.000000000000001192, -19.466203, 19.950264, 0.000000000000001222, 308.854321, 180.276799)" fill="none" stroke-linejoin="miter" d="M 0.500037 0.0000575296 L 5.395341 0.0000575296 " stroke="rgb(100%, 100%, 100%)" stroke-width="1" stroke-opacity="1" stroke-miterlimit="4"/><path stroke-linecap="round" transform="matrix(0.000000000000001192, 19.470173, -19.950264, 0.000000000000001222, 75.140397, 203.749499)" fill="none" stroke-linejoin="miter" d="M 0.499989 -0.0000114201 L 5.393693 -0.0000114201 " stroke="rgb(100%, 100%, 100%)" stroke-width="1" stroke-opacity="1" stroke-miterlimit="4"/><path stroke-linecap="round" transform="matrix(0.000000000000001195, -19.514519, 19.780978, 0.000000000000001211, 96.65192, 292.685724)" fill="none" stroke-linejoin="miter" d="M 0.499937 0.0000214346 L 2.728847 0.0000214346 " stroke="rgb(100%, 100%, 100%)" stroke-width="1" stroke-opacity="1" stroke-miterlimit="4"/><path stroke-linecap="round" transform="matrix(0.000000000000001195, 19.514519, -19.780978, 0.000000000000001211, 286.734506, 91.322396)" fill="none" stroke-linejoin="miter" d="M 0.499922 0.00000664634 L 2.728831 0.00000664634 " stroke="rgb(100%, 100%, 100%)" stroke-width="1" stroke-opacity="1" stroke-miterlimit="4"/></svg>