<?xml version="1.0" encoding="UTF-8" standalone="no"?>
<!DOCTYPE svg PUBLIC "-//W3C//DTD SVG 1.1//EN" "http://www.w3.org/Graphics/SVG/1.1/DTD/svg11.dtd">
<svg width="100%" height="100%" viewBox="0 0 150 31" version="1.1" xmlns="http://www.w3.org/2000/svg" xmlns:xlink="http://www.w3.org/1999/xlink" xml:space="preserve" xmlns:serif="http://www.serif.com/" style="fill-rule:evenodd;clip-rule:evenodd;stroke-linecap:round;">
    <g id="surface1">
        <g transform="matrix(1,0,0,1,27.4662,17.8731)">
            <g>
                <path d="M0.953,-14.297L9.875,-14.297L9.875,-11.516L4.016,-11.516L4.016,-8.922L9.172,-8.922L9.172,-6.141L4.016,-6.141L4.016,0L0.953,0L0.953,-14.297Z" style="fill:rgb(21,21,21);fill-rule:nonzero;"/>
            </g>
        </g>
        <g transform="matrix(1,0,0,1,37.6013,17.8731)">
            <g>
                <path d="M3.938,0L1.156,0L1.156,-10L3.938,-10L3.938,0ZM2.547,-11.375C2.109,-11.375 1.738,-11.52 1.438,-11.813C1.145,-12.102 1,-12.469 1,-12.906C1,-13.332 1.145,-13.695 1.438,-14C1.738,-14.301 2.109,-14.453 2.547,-14.453C2.973,-14.453 3.332,-14.301 3.625,-14C3.926,-13.695 4.078,-13.332 4.078,-12.906C4.078,-12.469 3.926,-12.102 3.625,-11.813C3.332,-11.52 2.973,-11.375 2.547,-11.375Z" style="fill:rgb(21,21,21);fill-rule:nonzero;"/>
            </g>
        </g>
        <g transform="matrix(1,0,0,1,42.6992,17.8731)">
            <g>
                <path d="M6.109,-10C6.484,-10 6.898,-9.941 7.359,-9.828C7.816,-9.723 8.242,-9.52 8.641,-9.219C9.047,-8.926 9.383,-8.52 9.656,-8C9.938,-7.477 10.078,-6.801 10.078,-5.969L10.078,0L7.281,0L7.281,-5.859C7.281,-6.172 7.227,-6.43 7.125,-6.641C7.02,-6.859 6.883,-7.031 6.719,-7.156C6.551,-7.289 6.359,-7.383 6.141,-7.438C5.93,-7.5 5.719,-7.531 5.5,-7.531C5.32,-7.531 5.129,-7.5 4.922,-7.438C4.711,-7.383 4.52,-7.289 4.344,-7.156C4.164,-7.02 4.016,-6.844 3.891,-6.625C3.766,-6.414 3.703,-6.16 3.703,-5.859L3.703,0L0.922,0L0.922,-10L3.313,-10L3.703,-9.234C4.023,-9.461 4.391,-9.645 4.797,-9.781C5.203,-9.926 5.641,-10 6.109,-10Z" style="fill:rgb(21,21,21);fill-rule:nonzero;"/>
            </g>
        </g>
        <g transform="matrix(1,0,0,1,53.6,17.8731)">
            <g>
                <path d="M10.984,-14.719L10.984,0L8.609,0L8.203,-0.859C7.891,-0.547 7.461,-0.285 6.922,-0.078C6.379,0.129 5.813,0.234 5.219,0.234C4.508,0.234 3.852,0.098 3.25,-0.172C2.645,-0.441 2.125,-0.816 1.688,-1.297C1.25,-1.773 0.906,-2.332 0.656,-2.969C0.406,-3.613 0.281,-4.297 0.281,-5.016C0.281,-5.742 0.406,-6.426 0.656,-7.063C0.906,-7.695 1.25,-8.254 1.688,-8.734C2.125,-9.211 2.645,-9.586 3.25,-9.859C3.852,-10.141 4.508,-10.281 5.219,-10.281C5.852,-10.281 6.414,-10.207 6.906,-10.063C7.395,-9.914 7.828,-9.664 8.203,-9.313L8.203,-14.719L10.984,-14.719ZM8.203,-4.984C8.203,-5.504 8.133,-5.941 8,-6.297C7.863,-6.648 7.676,-6.938 7.438,-7.156C7.195,-7.383 6.914,-7.547 6.594,-7.641C6.281,-7.742 5.941,-7.797 5.578,-7.797C5.211,-7.797 4.875,-7.723 4.563,-7.578C4.25,-7.43 3.973,-7.234 3.734,-6.984C3.504,-6.734 3.32,-6.438 3.188,-6.094C3.051,-5.75 2.984,-5.391 2.984,-5.016C2.984,-4.629 3.051,-4.266 3.188,-3.922C3.32,-3.586 3.504,-3.297 3.734,-3.047C3.973,-2.805 4.25,-2.609 4.563,-2.453C4.875,-2.305 5.211,-2.234 5.578,-2.234C6.305,-2.234 6.922,-2.457 7.422,-2.906C7.93,-3.363 8.191,-4.055 8.203,-4.984Z" style="fill:rgb(21,21,21);fill-rule:nonzero;"/>
            </g>
        </g>
        <g transform="matrix(1,0,0,1,65.4882,17.8731)">
            <g>
                <path d="M13.469,-14.297L16.344,-14.297L16.344,0L13.297,0L13.297,-9.438L9.891,-4.656L7.453,-4.656L4.016,-9.297L4.016,0L0.953,0L0.953,-14.297L3.844,-14.297L8.688,-7.703L13.469,-14.297Z" style="fill:rgb(21,21,21);fill-rule:nonzero;"/>
            </g>
        </g>
        <g transform="matrix(1,0,0,1,82.7765,17.8731)">
            <g>
                <path d="M8.625,-10L11.672,-10L5.359,3.984L2.313,3.984L4.797,-1.516L0.563,-10L3.672,-10L6.266,-4.781L8.625,-10Z" style="fill:rgb(21,21,21);fill-rule:nonzero;"/>
            </g>
        </g>
        <g transform="matrix(1,0,0,1,94.6848,17.8731)">
            <g>
                <path d="M10.031,-7.359C10.602,-7.023 11.035,-6.594 11.328,-6.063C11.617,-5.539 11.766,-4.938 11.766,-4.25C11.766,-3.602 11.609,-3 11.297,-2.438C10.992,-1.883 10.563,-1.395 10,-0.969C9.488,-0.582 8.906,-0.285 8.25,-0.078C7.602,0.129 6.914,0.242 6.188,0.266C5.457,0.266 4.766,0.164 4.109,-0.031C3.453,-0.238 2.867,-0.547 2.359,-0.953C1.586,-1.523 1.063,-2.223 0.781,-3.047L3.609,-4.359C3.609,-4.223 3.656,-4.051 3.75,-3.844C3.844,-3.645 3.988,-3.453 4.188,-3.266C4.395,-3.078 4.66,-2.914 4.984,-2.781C5.305,-2.645 5.703,-2.578 6.172,-2.578C6.547,-2.578 6.875,-2.625 7.156,-2.719C7.445,-2.813 7.691,-2.926 7.891,-3.063C8.086,-3.207 8.234,-3.367 8.328,-3.547C8.43,-3.734 8.484,-3.922 8.484,-4.109C8.484,-4.328 8.41,-4.531 8.266,-4.719C8.129,-4.906 7.914,-5.051 7.625,-5.156C7.082,-5.344 6.508,-5.5 5.906,-5.625C5.313,-5.758 4.734,-5.922 4.172,-6.109C3.609,-6.305 3.082,-6.566 2.594,-6.891C2.113,-7.211 1.734,-7.664 1.453,-8.25C1.191,-8.758 1.063,-9.301 1.063,-9.875C1.063,-10.52 1.211,-11.145 1.516,-11.75C1.816,-12.352 2.234,-12.863 2.766,-13.281C3.254,-13.676 3.805,-13.977 4.422,-14.188C5.047,-14.395 5.703,-14.5 6.391,-14.5C7.078,-14.5 7.734,-14.395 8.359,-14.188C8.984,-13.988 9.539,-13.691 10.031,-13.297C10.52,-12.941 10.906,-12.52 11.188,-12.031L8.891,-10.469C8.609,-10.852 8.254,-11.16 7.828,-11.391C7.41,-11.629 6.938,-11.75 6.406,-11.75C5.688,-11.75 5.125,-11.586 4.719,-11.266C4.32,-10.941 4.125,-10.52 4.125,-10C4.125,-9.758 4.234,-9.539 4.453,-9.344C4.68,-9.156 4.973,-8.988 5.328,-8.844C5.68,-8.695 6.082,-8.566 6.531,-8.453C6.977,-8.336 7.414,-8.223 7.844,-8.109C8.281,-7.992 8.691,-7.875 9.078,-7.75C9.473,-7.633 9.789,-7.504 10.031,-7.359Z" style="fill:rgb(21,21,21);fill-rule:nonzero;"/>
            </g>
        </g>
        <g transform="matrix(1,0,0,1,107.097,17.8731)">
            <g>
                <path d="M4.594,-3.594C4.594,-3.113 4.738,-2.742 5.031,-2.484C5.32,-2.234 5.703,-2.109 6.172,-2.109C6.547,-2.109 6.922,-2.188 7.297,-2.344L7.297,0C6.961,0.102 6.602,0.191 6.219,0.266C5.844,0.348 5.469,0.391 5.094,0.391C4.664,0.391 4.254,0.332 3.859,0.219C3.473,0.113 3.125,-0.066 2.813,-0.328C2.508,-0.586 2.266,-0.938 2.078,-1.375C1.898,-1.813 1.813,-2.352 1.813,-3L1.813,-7.516L0.391,-7.516L0.391,-9.391L1.813,-10L1.813,-12.234L4.594,-12.234L4.594,-10L7.297,-10L7.297,-7.516L4.594,-7.516L4.594,-3.594Z" style="fill:rgb(21,21,21);fill-rule:nonzero;"/>
            </g>
        </g>
        <g transform="matrix(1,0,0,1,114.814,17.8731)">
            <g>
                <path d="M7.234,-10L10.016,-10L10.016,0L7.641,0L7.234,-0.766C6.91,-0.535 6.539,-0.348 6.125,-0.203C5.719,-0.066 5.281,0 4.813,0C4.445,0 4.031,-0.051 3.563,-0.156C3.102,-0.27 2.672,-0.473 2.266,-0.766C1.867,-1.055 1.531,-1.461 1.25,-1.984C0.977,-2.516 0.844,-3.195 0.844,-4.031L0.844,-10L3.641,-10L3.641,-4.125C3.641,-3.82 3.691,-3.563 3.797,-3.344C3.898,-3.125 4.035,-2.953 4.203,-2.828C4.367,-2.703 4.555,-2.609 4.766,-2.547C4.984,-2.484 5.207,-2.453 5.438,-2.453C5.613,-2.453 5.805,-2.484 6.016,-2.547C6.223,-2.609 6.414,-2.707 6.594,-2.844C6.781,-2.977 6.93,-3.148 7.047,-3.359C7.172,-3.578 7.234,-3.832 7.234,-4.125L7.234,-10Z" style="fill:rgb(21,21,21);fill-rule:nonzero;"/>
            </g>
        </g>
        <g transform="matrix(1,0,0,1,125.755,17.8731)">
            <g>
                <path d="M1.688,-10.844C1.688,-11.539 1.789,-12.141 2,-12.641C2.207,-13.148 2.484,-13.566 2.828,-13.891C3.18,-14.223 3.586,-14.469 4.047,-14.625C4.504,-14.781 4.988,-14.859 5.5,-14.859C5.813,-14.859 6.117,-14.828 6.422,-14.766C6.734,-14.711 7.047,-14.633 7.359,-14.531L7.141,-12.5L6.469,-12.594C6.363,-12.613 6.266,-12.625 6.172,-12.625C6.086,-12.633 6.004,-12.641 5.922,-12.641C5.41,-12.641 5.035,-12.516 4.797,-12.266C4.566,-12.016 4.453,-11.656 4.453,-11.188L4.453,-10L7.141,-10L7.141,-7.516L4.453,-7.516L4.453,0L1.688,0L1.688,-7.516L0.391,-7.516L0.391,-8.984L1.688,-10L1.688,-10.844Z" style="fill:rgb(21,21,21);fill-rule:nonzero;"/>
            </g>
        </g>
        <g transform="matrix(1,0,0,1,133.392,17.8731)">
            <g>
                <path d="M1.688,-10.844C1.688,-11.539 1.789,-12.141 2,-12.641C2.207,-13.148 2.484,-13.566 2.828,-13.891C3.18,-14.223 3.586,-14.469 4.047,-14.625C4.504,-14.781 4.988,-14.859 5.5,-14.859C5.813,-14.859 6.117,-14.828 6.422,-14.766C6.734,-14.711 7.047,-14.633 7.359,-14.531L7.141,-12.5L6.469,-12.594C6.363,-12.613 6.266,-12.625 6.172,-12.625C6.086,-12.633 6.004,-12.641 5.922,-12.641C5.41,-12.641 5.035,-12.516 4.797,-12.266C4.566,-12.016 4.453,-11.656 4.453,-11.188L4.453,-10L7.141,-10L7.141,-7.516L4.453,-7.516L4.453,0L1.688,0L1.688,-7.516L0.391,-7.516L0.391,-8.984L1.688,-10L1.688,-10.844Z" style="fill:rgb(21,21,21);fill-rule:nonzero;"/>
            </g>
        </g>
        <g transform="matrix(1,0,0,1,141.029,17.8731)">
            <g>
                <path d="M2.5,-2.906C2.926,-2.906 3.289,-2.754 3.594,-2.453C3.895,-2.16 4.047,-1.801 4.047,-1.375C4.047,-0.938 3.895,-0.57 3.594,-0.281C3.289,0.008 2.926,0.156 2.5,0.156C2.07,0.156 1.707,0.008 1.406,-0.281C1.113,-0.57 0.969,-0.938 0.969,-1.375C0.969,-1.801 1.113,-2.16 1.406,-2.453C1.707,-2.754 2.07,-2.906 2.5,-2.906Z" style="fill:rgb(21,21,21);fill-rule:nonzero;"/>
            </g>
        </g>
        <g>
            <g>
                <clipPath id="_clip1">
                    <path d="M94.531,14.184L103.313,17.637L98.801,29.121L90.02,25.668L94.531,14.184Z"/>
                </clipPath>
                <g clip-path="url(#_clip1)">
                    <g>
                        <clipPath id="_clip2">
                            <path d="M94.531,14.184L103.313,17.637L98.801,29.121L90.02,25.668L94.531,14.184Z"/>
                        </clipPath>
                        <g clip-path="url(#_clip2)">
                            <g>
                                <clipPath id="_clip3">
                                    <path d="M98.277,19.234L102.16,20.762L98.867,29.148L94.98,27.621L98.277,19.234Z"/>
                                </clipPath>
                                <g clip-path="url(#_clip3)">
                                    <g>
                                        <clipPath id="_clip4">
                                            <path d="M98.277,19.234L102.031,20.711L98.734,29.098L94.98,27.621L98.277,19.234Z"/>
                                        </clipPath>
                                        <g clip-path="url(#_clip4)">
                                            <path d="M99.402,24.059C100.492,24.031 101.379,23.094 101.383,21.965C101.391,20.84 100.512,19.949 99.422,19.98C99.063,19.988 98.711,20.098 98.402,20.297C98.629,20.684 98.969,20.98 99.371,21.152L100.371,21.547C100.57,21.625 100.668,21.863 100.582,22.074C100.5,22.281 100.27,22.391 100.07,22.313L98.984,21.887C98.484,21.738 98.043,21.445 97.711,21.035C97.289,21.781 97.355,22.707 97.875,23.355L96.266,27.453C96.164,27.707 96.234,27.996 96.438,28.16L98.066,24.023L98.348,24.133L96.707,28.297L96.836,28.348C97.145,28.469 97.496,28.309 97.621,27.984L97.684,27.828L98.168,27.59L98.016,27.191L98.398,27L98.246,26.602L98.629,26.41L98.48,26.012L98.863,25.82L98.711,25.422L99.094,25.23L98.945,24.832L99.395,24.613L99.402,24.059" style="fill:rgb(21,21,21);fill-rule:nonzero;"/>
                                        </g>
                                    </g>
                                </g>
                            </g>
                        </g>
                    </g>
                </g>
            </g>
        </g>
        <g>
            <g>
                <clipPath id="_clip5">
                    <path d="M94.531,14.184L103.313,17.637L98.801,29.121L90.02,25.668L94.531,14.184Z"/>
                </clipPath>
                <g clip-path="url(#_clip5)">
                    <g>
                        <clipPath id="_clip6">
                            <path d="M94.531,14.184L103.313,17.637L98.801,29.121L90.02,25.668L94.531,14.184Z"/>
                        </clipPath>
                        <g clip-path="url(#_clip6)">
                            <path d="M99.316,19.609C99.039,19.047 98.52,18.656 97.91,18.559C98.305,17.484 99.457,16.914 100.484,17.285C101.516,17.656 102.031,18.832 101.641,19.906C101.559,20.129 101.441,20.34 101.289,20.523C101.367,20.625 101.434,20.734 101.492,20.852C102.383,19.844 102.34,18.301 101.391,17.41C100.445,16.516 98.953,16.609 98.059,17.617C97.824,17.883 97.645,18.195 97.535,18.535C96.531,18.578 95.691,19.391 95.586,20.426L91.676,22.238C91.41,22.359 91.258,22.66 91.32,22.953L95.113,21.199L95.23,21.48L91.426,23.242L91.457,23.309C91.582,23.621 91.934,23.762 92.242,23.617L92.391,23.551L92.887,23.727L93.055,23.324L93.449,23.465L93.621,23.066L94.012,23.207L94.18,22.805L94.574,22.945L94.742,22.543L95.137,22.684L95.309,22.285L95.766,22.453L96.148,22.055C96.414,22.324 96.75,22.508 97.121,22.582C96.984,21.906 97.137,21.195 97.539,20.629L97.246,19.906C97.168,19.719 97.242,19.492 97.418,19.387C97.445,20.297 97.965,21.102 98.762,21.465C98.828,21.359 98.887,21.246 98.934,21.129C98.254,20.82 97.805,20.141 97.781,19.363C97.867,19.402 97.938,19.477 97.977,19.57L98.16,20.02C98.508,19.781 98.906,19.637 99.316,19.609" style="fill:rgb(21,21,21);fill-rule:nonzero;"/>
                        </g>
                    </g>
                </g>
            </g>
        </g>
        <path d="M11.145,3.141L5.004,3.141L5.004,9.281L5.508,9.281L5.508,3.645L11.145,3.645L11.145,3.141Z" style="fill:rgb(21,21,21);fill-rule:nonzero;"/>
        <path d="M14.445,18.723L20.586,18.723L20.586,12.582L20.082,12.582L20.082,18.219L14.445,18.219L14.445,18.723Z" style="fill:rgb(21,21,21);fill-rule:nonzero;"/>
        <g transform="matrix(1.03e-16,1.68076,-1.71533,1.05e-16,5.78023,10.9344)">
            <path d="M0.499,-0.001L4.153,-0.001" style="fill:none;fill-rule:nonzero;stroke:rgb(21,21,21);stroke-width:1px;"/>
        </g>
        <g transform="matrix(1.06e-16,1.72395,-1.67078,1.02e-16,8.85509,12.6581)">
            <path d="M0.5,-0L2.093,-0" style="fill:none;fill-rule:nonzero;stroke:rgb(21,21,21);stroke-width:1px;"/>
        </g>
        <g transform="matrix(1.03e-16,-1.68076,1.71533,1.05e-16,19.811,10.9315)">
            <path d="M0.501,0.001L4.152,0.001" style="fill:none;fill-rule:nonzero;stroke:rgb(21,21,21);stroke-width:1px;"/>
        </g>
        <g transform="matrix(1.06e-16,-1.72395,1.67078,1.02e-16,16.736,9.20459)">
            <path d="M0.499,-0.001L2.092,-0.001" style="fill:none;fill-rule:nonzero;stroke:rgb(21,21,21);stroke-width:1px;"/>
        </g>
    </g>
</svg>
