<?xml version="1.0" encoding="UTF-8" standalone="no"?>
<!DOCTYPE svg PUBLIC "-//W3C//DTD SVG 1.1//EN" "http://www.w3.org/Graphics/SVG/1.1/DTD/svg11.dtd">
<svg width="100%" height="100%" viewBox="0 0 142 26" version="1.1" xmlns="http://www.w3.org/2000/svg" xmlns:xlink="http://www.w3.org/1999/xlink" xml:space="preserve" xmlns:serif="http://www.serif.com/" style="fill-rule:evenodd;clip-rule:evenodd;stroke-linejoin:round;stroke-miterlimit:2;">
    <g transform="matrix(1,0,0,1,57.8971,-57.8656)">
        <g id="Calque_2" transform="matrix(6.12323e-17,1,-1,6.12323e-17,83.4929,57.8957)">
            <g id="Calque_1-2">
                <g>
                    <g>
                        <path d="M0.65,117.72L0.64,108.72L3.45,108.71L3.45,114.63L6.07,114.62L6.07,109.42L8.87,109.42L8.88,114.62L15.07,114.62L15.07,117.71L0.65,117.72Z" style="fill:white;fill-rule:nonzero;"/>
                        <g transform="matrix(1,0,0,1,-3.05,-4.98)">
                            <path d="M6.64,110.86C6.654,111.284 6.495,111.696 6.2,112C5.907,112.294 5.505,112.453 5.09,112.44C5.083,112.44 5.077,112.44 5.07,112.44C4.225,112.44 3.53,111.745 3.53,110.9C3.53,110.893 3.53,110.887 3.53,110.88C3.518,110.46 3.69,110.054 4,109.77C4.289,109.475 4.687,109.312 5.1,109.32C5.103,109.32 5.107,109.32 5.11,109.32C5.955,109.32 6.65,110.015 6.65,110.86C6.65,110.86 6.65,110.86 6.65,110.86L6.64,110.86ZM18.11,109.45L18.11,112.26L8,112.26L8,109.46L18.11,109.45Z" style="fill:white;fill-rule:nonzero;"/>
                        </g>
                        <g transform="matrix(1,0,0,1,-3.05,-4.98)">
                            <path d="M8,102.12C8.008,101.695 8.065,101.272 8.17,100.86C8.282,100.392 8.49,99.953 8.78,99.57C9.111,99.149 9.531,98.808 10.01,98.57C10.648,98.262 11.352,98.115 12.06,98.14L18.06,98.14L18.06,100.96L12.19,100.96C11.922,100.952 11.656,101.003 11.41,101.11C11.208,101.205 11.03,101.345 10.89,101.52C10.752,101.694 10.653,101.895 10.6,102.11C10.54,102.318 10.51,102.533 10.51,102.75C10.512,102.95 10.542,103.149 10.6,103.34C10.658,103.55 10.756,103.747 10.89,103.92C11.036,104.106 11.215,104.262 11.42,104.38C11.659,104.509 11.928,104.575 12.2,104.57L18.11,104.57L18.11,107.38L8,107.38L8,104.96L8.77,104.57C8.534,104.232 8.348,103.862 8.22,103.47C8.067,103.037 7.993,102.579 8,102.12Z" style="fill:white;fill-rule:nonzero;"/>
                        </g>
                        <g transform="matrix(1,0,0,1,-3.05,-4.98)">
                            <path d="M13.07,89C12.618,88.99 12.168,89.057 11.74,89.2C11.414,89.323 11.12,89.518 10.88,89.77C10.649,90.008 10.48,90.3 10.39,90.62C10.287,90.944 10.233,91.281 10.23,91.62C10.232,91.965 10.307,92.306 10.45,92.62C10.596,92.935 10.8,93.22 11.05,93.46C11.317,93.693 11.621,93.879 11.95,94.01C12.297,94.146 12.667,94.214 13.04,94.21C13.416,94.211 13.789,94.143 14.14,94.01C14.469,93.881 14.771,93.691 15.03,93.45C15.272,93.206 15.474,92.926 15.63,92.62C15.775,92.307 15.85,91.965 15.85,91.62C15.865,90.937 15.622,90.272 15.17,89.76C14.61,89.22 13.846,88.944 13.07,89ZM3.24,86.2L18.1,86.2L18.1,88.59L17.23,89C17.573,89.372 17.835,89.812 18,90.29C18.217,90.834 18.333,91.414 18.34,92C18.347,92.688 18.207,93.37 17.93,94C17.667,94.602 17.278,95.141 16.79,95.58C16.296,96.014 15.727,96.353 15.11,96.58C14.44,96.852 13.724,96.995 13,97C12.316,96.996 11.638,96.867 11,96.62C10.38,96.393 9.807,96.054 9.31,95.62C8.815,95.166 8.42,94.615 8.15,94C7.865,93.372 7.722,92.689 7.73,92C7.737,91.43 7.828,90.864 8,90.32C8.132,89.833 8.371,89.382 8.7,89L3.25,89L3.24,86.2Z" style="fill:white;fill-rule:nonzero;"/>
                        </g>
                        <path d="M0.61,66.72L0.61,63.82L15.04,63.81L15.04,66.89L5.51,66.89L10.34,70.33L10.34,72.79L5.66,76.26L15.04,76.25L15.05,79.34L0.62,79.35L0.62,76.44L7.27,71.54L0.61,66.72Z" style="fill:white;fill-rule:nonzero;"/>
                        <path d="M4.94,54.16L4.93,51.09L19.05,57.45L19.05,60.52L13.5,58.02L4.94,62.3L4.94,59.16L10.21,56.54L4.94,54.16Z" style="fill:white;fill-rule:nonzero;"/>
                        <g transform="matrix(1,0,0,1,-3.05,-4.98)">
                            <path d="M10.64,45.71C10.959,45.152 11.431,44.698 12,44.4C12.551,44.121 13.163,43.984 13.78,44C14.421,43.989 15.053,44.152 15.61,44.47C16.19,44.793 16.695,45.236 17.09,45.77C17.487,46.292 17.795,46.877 18,47.5C18.21,48.174 18.328,48.874 18.35,49.58C18.354,50.291 18.252,50.999 18.05,51.68C17.852,52.319 17.537,52.916 17.12,53.44C16.591,54.165 15.85,54.71 15,55L13.67,52.14C13.852,52.132 14.029,52.085 14.19,52C14.413,51.893 14.613,51.743 14.78,51.56C14.985,51.323 15.148,51.052 15.26,50.76C15.409,50.378 15.481,49.97 15.47,49.56C15.474,49.222 15.427,48.884 15.33,48.56C15.248,48.299 15.13,48.05 14.98,47.82C14.847,47.642 14.681,47.493 14.49,47.38C14.315,47.284 14.119,47.232 13.92,47.23C13.698,47.234 13.483,47.311 13.31,47.45C13.099,47.611 12.944,47.835 12.87,48.09C12.675,48.66 12.514,49.241 12.39,49.83C12.262,50.422 12.102,51.006 11.91,51.58C11.716,52.142 11.45,52.676 11.12,53.17C10.78,53.674 10.305,54.072 9.75,54.32C9.245,54.587 8.681,54.724 8.11,54.72C7.452,54.72 6.804,54.562 6.22,54.26C5.614,53.964 5.083,53.533 4.67,53C4.269,52.503 3.96,51.937 3.76,51.33C3.333,50.031 3.333,48.629 3.76,47.33C3.953,46.716 4.258,46.143 4.66,45.64C5,45.165 5.436,44.766 5.94,44.47L7.5,46.86C7.117,47.143 6.803,47.509 6.58,47.93C6.332,48.369 6.204,48.866 6.21,49.37C6.179,49.975 6.351,50.574 6.7,51.07C7.009,51.459 7.483,51.681 7.98,51.67C8.239,51.666 8.482,51.545 8.64,51.34C8.852,51.07 9.024,50.77 9.15,50.45C9.313,50.058 9.443,49.653 9.54,49.24C9.66,48.79 9.77,48.35 9.89,47.91C10.01,47.47 10.12,47.06 10.25,46.67C10.343,46.336 10.474,46.014 10.64,45.71Z" style="fill:white;fill-rule:nonzero;"/>
                        </g>
                        <g transform="matrix(1,0,0,1,-3.05,-4.98)">
                            <path d="M14.44,38.67C14.862,38.695 15.273,38.53 15.56,38.22C15.821,37.895 15.953,37.486 15.93,37.07C15.927,36.682 15.849,36.298 15.7,35.94L18.06,35.94C18.16,36.28 18.25,36.64 18.33,37.02C18.413,37.394 18.456,37.777 18.46,38.16C18.461,38.583 18.401,39.004 18.28,39.41C18.18,39.798 17.992,40.157 17.73,40.46C17.443,40.786 17.083,41.039 16.68,41.2C16.157,41.399 15.599,41.491 15.04,41.47L10.48,41.47L10.48,42.9L8.59,42.9L8,41.48L5.72,41.48L5.72,38.67L8,38.67L8,35.94L10.51,35.94L10.51,38.67L14.44,38.67Z" style="fill:white;fill-rule:nonzero;"/>
                        </g>
                        <g transform="matrix(1,0,0,1,-3.05,-4.98)">
                            <path d="M8,28.22L8,25.41L18.05,25.41L18.05,27.8L17.28,28.21C17.519,28.556 17.711,28.933 17.85,29.33C17.993,29.759 18.064,30.208 18.06,30.66C18.055,31.085 18.001,31.507 17.9,31.92C17.782,32.392 17.575,32.836 17.29,33.23C16.957,33.648 16.538,33.99 16.06,34.23C15.413,34.53 14.703,34.671 13.99,34.64L8,34.64L8,31.85L13.9,31.85C14.169,31.858 14.436,31.803 14.68,31.69C14.887,31.602 15.066,31.46 15.2,31.28C15.33,31.112 15.428,30.923 15.49,30.72C15.55,30.498 15.58,30.27 15.58,30.04C15.577,29.84 15.546,29.642 15.49,29.45C15.418,29.243 15.317,29.048 15.19,28.87C14.893,28.451 14.403,28.21 13.89,28.23L8,28.22Z" style="fill:white;fill-rule:nonzero;"/>
                        </g>
                        <g transform="matrix(1,0,0,1,-3.05,-4.98)">
                            <path d="M7.11,22.78C6.491,22.799 5.875,22.69 5.3,22.46C4.809,22.287 4.364,22.003 4,21.63C3.671,21.275 3.42,20.856 3.26,20.4C3.098,19.927 3.017,19.43 3.02,18.93C3.024,18.618 3.057,18.306 3.12,18C3.173,17.681 3.25,17.367 3.35,17.06L5.4,17.28L5.34,18C5.331,18.1 5.331,18.2 5.34,18.3C5.335,18.387 5.335,18.473 5.34,18.56C5.306,18.973 5.444,19.382 5.72,19.69C6.019,19.914 6.388,20.024 6.76,20L8,20L8,17.27L10.5,17.27L10.5,20L18.08,20L18.08,22.79L10.47,22.79L10.47,24.1L9,24.1L8,22.8L7.11,22.78Z" style="fill:white;fill-rule:nonzero;"/>
                        </g>
                        <g transform="matrix(1,0,0,1,-3.05,-4.98)">
                            <path d="M7.1,15.07C6.482,15.087 5.867,14.982 5.29,14.76C4.804,14.577 4.364,14.29 4,13.92C3.661,13.574 3.407,13.152 3.26,12.69C3.099,12.22 3.018,11.727 3.02,11.23C3.02,10.918 3.05,10.606 3.11,10.3C3.169,9.962 3.249,9.628 3.35,9.3L5.4,9.52L5.3,10.2C5.291,10.3 5.291,10.4 5.3,10.5L5.3,10.75C5.26,11.166 5.398,11.581 5.68,11.89C5.984,12.136 6.37,12.258 6.76,12.23L8,12.23L8,9.57L10.51,9.57L10.51,12.28L18,12.28L18,15.07L10.46,15.07L10.46,16.38L9,16.38L8,15.07L7.1,15.07Z" style="fill:white;fill-rule:nonzero;"/>
                        </g>
                        <g transform="matrix(1,0,0,1,-3.05,-4.98)">
                            <path d="M15.11,6.54C15.102,6.127 15.265,5.729 15.56,5.44C15.848,5.145 16.243,4.979 16.655,4.979C17.067,4.979 17.462,5.145 17.75,5.44C18.045,5.729 18.208,6.127 18.2,6.54C18.2,6.55 18.2,6.56 18.2,6.57C18.2,7.404 17.514,8.09 16.68,8.09C16.67,8.09 16.66,8.09 16.65,8.09C16.24,8.097 15.845,7.934 15.56,7.64C15.265,7.351 15.102,6.953 15.11,6.54Z" style="fill:white;fill-rule:nonzero;"/>
                        </g>
                        <g transform="matrix(1,0,0,1,-3.05,-4.98)">
                            <g>
                                <g>
                                    <g>
                                        <path d="M24.31,51.06C24.257,49.942 23.319,49.053 22.2,49.06C22.18,49.059 22.159,49.059 22.139,49.059C21.075,49.059 20.199,49.935 20.199,50.999C20.199,51.019 20.199,51.04 20.2,51.06C20.216,51.416 20.326,51.761 20.52,52.06C20.911,51.834 21.215,51.481 21.38,51.06L21.78,50.06C21.856,49.933 21.993,49.855 22.141,49.855C22.371,49.855 22.561,50.044 22.561,50.275C22.561,50.307 22.557,50.339 22.55,50.37L22.12,51.46C21.973,51.968 21.673,52.419 21.26,52.75C22,53.174 22.929,53.107 23.6,52.58L27.74,54.2C27.988,54.303 28.276,54.234 28.45,54.03L24.28,52.39L24.39,52.1L28.59,53.76L28.64,53.63C28.755,53.312 28.595,52.955 28.28,52.83L28.12,52.77L27.88,52.28L27.47,52.44L27.28,52.05L26.88,52.2L26.69,51.82L26.28,51.97L26.09,51.58L25.69,51.74L25.5,51.35L25.09,51.5L24.87,51.05L24.31,51.05" style="fill:white;fill-rule:nonzero;"/>
                                    </g>
                                </g>
                            </g>
                        </g>
                        <g transform="matrix(1,0,0,1,-3.05,-4.98)">
                            <g>
                                <path d="M19.82,51.15C19.259,51.425 18.864,51.954 18.76,52.57C17.967,52.284 17.436,51.528 17.436,50.685C17.436,49.586 18.341,48.681 19.44,48.681C19.672,48.681 19.902,48.721 20.12,48.8C20.347,48.882 20.557,49.004 20.74,49.16C20.847,49.081 20.961,49.01 21.08,48.95C20.083,48.056 18.539,48.105 17.6,49.06C17.206,49.491 16.987,50.055 16.987,50.639C16.987,51.324 17.288,51.976 17.81,52.42C18.08,52.659 18.397,52.839 18.74,52.95C18.786,53.996 19.607,54.856 20.65,54.95L22.48,58.95C22.611,59.217 22.909,59.362 23.2,59.3L21.43,55.48L21.71,55.36L23.49,59.2L23.56,59.2C23.783,59.114 23.931,58.898 23.931,58.659C23.931,58.569 23.91,58.48 23.87,58.4L23.81,58.25L23.98,57.75L23.58,57.58L23.72,57.19L23.32,57.01L23.46,56.62L23.05,56.45L23.19,56.05L22.79,55.88L22.93,55.48L22.53,55.31L22.7,54.85L22.29,54.46C22.568,54.192 22.754,53.841 22.82,53.46C22.124,53.607 21.398,53.455 20.82,53.04L20.09,53.34C19.897,53.413 19.677,53.337 19.57,53.16C20.469,53.147 21.285,52.622 21.67,51.81C21.562,51.74 21.448,51.68 21.33,51.63C21.012,52.329 20.318,52.785 19.55,52.8C19.589,52.711 19.661,52.639 19.75,52.6L20.21,52.42C19.971,52.073 19.827,51.67 19.79,51.25" style="fill:white;fill-rule:nonzero;"/>
                            </g>
                        </g>
                        <path d="M0.22,135.15L0.23,141.35L6.42,141.34L6.42,140.83L0.73,140.84L0.73,135.15L0.22,135.15Z" style="fill:white;fill-rule:nonzero;"/>
                        <path d="M15.94,131.81L15.94,125.61L9.74,125.62L9.74,126.13L15.43,126.12L15.43,131.81L15.94,131.81Z" style="fill:white;fill-rule:nonzero;"/>
                        <g transform="matrix(-3.82857e-16,-1,1,-3.82857e-16,-133.51,155.56)">
                            <path d="M15.92,142.44C15.92,141.96 15.53,141.57 15.05,141.57L15.04,141.57C14.56,141.57 14.17,141.96 14.17,142.44L14.17,148.57C14.17,149.05 14.56,149.44 15.04,149.44L15.05,149.44C15.53,149.44 15.92,149.05 15.92,148.57L15.92,142.44Z" style="fill:white;"/>
                        </g>
                        <g transform="matrix(-3.82857e-16,-1,1,-3.82857e-16,-130.42,152.47)">
                            <path d="M15.89,141C15.89,140.531 15.509,140.15 15.04,140.15C14.571,140.15 14.19,140.531 14.19,141L14.19,143.81C14.19,144.279 14.571,144.66 15.04,144.66C15.509,144.66 15.89,144.279 15.89,143.81L15.89,141Z" style="fill:white;"/>
                        </g>
                        <g transform="matrix(-3.82857e-16,1,-1,-3.82857e-16,135.53,119.25)">
                            <path d="M8.05,128.34C8.05,127.86 7.66,127.47 7.18,127.47L7.17,127.47C6.69,127.47 6.3,127.86 6.3,128.34L6.3,134.47C6.3,134.95 6.69,135.34 7.17,135.34L7.18,135.34C7.66,135.34 8.05,134.95 8.05,134.47L8.05,128.34Z" style="fill:white;"/>
                        </g>
                        <g transform="matrix(-3.82857e-16,1,-1,-3.82857e-16,138.62,122.34)">
                            <path d="M8.03,133.09C8.03,132.621 7.649,132.24 7.18,132.24C6.711,132.24 6.33,132.621 6.33,133.09L6.33,135.9C6.33,136.369 6.711,136.75 7.18,136.75C7.649,136.75 8.03,136.369 8.03,135.9L8.03,133.09Z" style="fill:white;"/>
                        </g>
                    </g>
                </g>
            </g>
        </g>
    </g>
</svg>
