<svg xmlns="http://www.w3.org/2000/svg" xmlns:xlink="http://www.w3.org/1999/xlink" width="2000" zoomAndPan="magnify" viewBox="0 0 1500 299.999988" height="400" preserveAspectRatio="xMidYMid meet" version="1.0"><defs><g/><clipPath id="id1"><path d="M 37.136719 58.6875 L 99.691406 58.6875 L 99.691406 121.242188 L 37.136719 121.242188 Z M 37.136719 58.6875 " clip-rule="nonzero"/></clipPath><clipPath id="id2"><path d="M 133.300781 154.851562 L 195.851562 154.851562 L 195.851562 217.402344 L 133.300781 217.402344 Z M 133.300781 154.851562 " clip-rule="nonzero"/></clipPath></defs><g fill="#171717" fill-opacity="1"><g transform="translate(250.992958, 213.191379)"><g><path d="M 9.640625 -145.515625 L 100.578125 -145.515625 L 100.578125 -117.203125 L 40.84375 -117.203125 L 40.84375 -90.921875 L 93.390625 -90.921875 L 93.390625 -62.59375 L 40.84375 -62.59375 L 40.84375 0 L 9.640625 0 Z M 9.640625 -145.515625 "/></g></g></g><g fill="#171717" fill-opacity="1"><g transform="translate(354.230994, 213.191379)"><g><path d="M 40.03125 0 L 11.703125 0 L 11.703125 -101.796875 L 40.03125 -101.796875 Z M 25.859375 -115.765625 C 21.484375 -115.765625 17.789062 -117.269531 14.78125 -120.28125 C 11.769531 -123.289062 10.265625 -126.984375 10.265625 -131.359375 C 10.265625 -135.734375 11.769531 -139.460938 14.78125 -142.546875 C 17.789062 -145.628906 21.484375 -147.171875 25.859375 -147.171875 C 30.234375 -147.171875 33.925781 -145.628906 36.9375 -142.546875 C 39.945312 -139.460938 41.453125 -135.734375 41.453125 -131.359375 C 41.453125 -126.984375 39.945312 -123.289062 36.9375 -120.28125 C 33.925781 -117.269531 30.234375 -115.765625 25.859375 -115.765625 Z M 25.859375 -115.765625 "/></g></g></g><g fill="#171717" fill-opacity="1"><g transform="translate(406.157881, 213.191379)"><g><path d="M 62.1875 -101.796875 C 66.019531 -101.796875 70.257812 -101.25 74.90625 -100.15625 C 79.5625 -99.0625 83.941406 -97.007812 88.046875 -94 C 92.148438 -90.988281 95.601562 -86.816406 98.40625 -81.484375 C 101.21875 -76.148438 102.625 -69.238281 102.625 -60.75 L 102.625 0 L 74.09375 0 L 74.09375 -59.734375 C 74.09375 -62.878906 73.578125 -65.546875 72.546875 -67.734375 C 71.523438 -69.921875 70.160156 -71.664062 68.453125 -72.96875 C 66.742188 -74.269531 64.789062 -75.226562 62.59375 -75.84375 C 60.40625 -76.457031 58.21875 -76.765625 56.03125 -76.765625 C 54.25 -76.765625 52.296875 -76.457031 50.171875 -75.84375 C 48.054688 -75.226562 46.070312 -74.234375 44.21875 -72.859375 C 42.375 -71.492188 40.835938 -69.71875 39.609375 -67.53125 C 38.378906 -65.34375 37.765625 -62.742188 37.765625 -59.734375 L 37.765625 0 L 9.4375 0 L 9.4375 -101.796875 L 33.65625 -101.796875 L 37.765625 -94 C 41.046875 -96.332031 44.738281 -98.210938 48.84375 -99.640625 C 52.945312 -101.078125 57.394531 -101.796875 62.1875 -101.796875 Z M 62.1875 -101.796875 "/></g></g></g><g fill="#171717" fill-opacity="1"><g transform="translate(517.195237, 213.191379)"><g><path d="M 111.859375 -149.828125 L 111.859375 0 L 87.640625 0 L 83.53125 -8.828125 C 80.382812 -5.546875 76.039062 -2.84375 70.5 -0.71875 C 64.957031 1.40625 59.175781 2.46875 53.15625 2.46875 C 45.90625 2.46875 39.203125 1.066406 33.046875 -1.734375 C 26.890625 -4.546875 21.585938 -8.378906 17.140625 -13.234375 C 12.691406 -18.097656 9.203125 -23.78125 6.671875 -30.28125 C 4.140625 -36.78125 2.875 -43.722656 2.875 -51.109375 C 2.875 -58.492188 4.140625 -65.4375 6.671875 -71.9375 C 9.203125 -78.4375 12.691406 -84.113281 17.140625 -88.96875 C 21.585938 -93.832031 26.890625 -97.664062 33.046875 -100.46875 C 39.203125 -103.269531 45.90625 -104.671875 53.15625 -104.671875 C 59.59375 -104.671875 65.304688 -103.914062 70.296875 -102.40625 C 75.296875 -100.90625 79.707031 -98.378906 83.53125 -94.828125 L 83.53125 -149.828125 Z M 83.53125 -50.703125 C 83.53125 -56.035156 82.847656 -60.515625 81.484375 -64.140625 C 80.117188 -67.765625 78.203125 -70.707031 75.734375 -72.96875 C 73.273438 -75.226562 70.4375 -76.867188 67.21875 -77.890625 C 64 -78.921875 60.546875 -79.4375 56.859375 -79.4375 C 53.160156 -79.4375 49.703125 -78.679688 46.484375 -77.171875 C 43.273438 -75.671875 40.472656 -73.65625 38.078125 -71.125 C 35.679688 -68.59375 33.796875 -65.582031 32.421875 -62.09375 C 31.054688 -58.601562 30.375 -54.941406 30.375 -51.109375 C 30.375 -47.140625 31.054688 -43.441406 32.421875 -40.015625 C 33.796875 -36.597656 35.679688 -33.625 38.078125 -31.09375 C 40.472656 -28.5625 43.273438 -26.539062 46.484375 -25.03125 C 49.703125 -23.53125 53.160156 -22.78125 56.859375 -22.78125 C 64.242188 -22.78125 70.5 -25.070312 75.625 -29.65625 C 80.757812 -34.238281 83.394531 -41.253906 83.53125 -50.703125 Z M 83.53125 -50.703125 "/></g></g></g><g fill="#171717" fill-opacity="1"><g transform="translate(638.289557, 213.191379)"><g><path d="M 137.109375 -145.515625 L 166.453125 -145.515625 L 166.453125 0 L 135.46875 0 L 135.46875 -96.0625 L 100.78125 -47.40625 L 75.9375 -47.40625 L 40.84375 -94.625 L 40.84375 0 L 9.640625 0 L 9.640625 -145.515625 L 39.203125 -145.515625 L 88.46875 -78.40625 Z M 137.109375 -145.515625 "/></g></g></g><g fill="#171717" fill-opacity="1"><g transform="translate(814.38949, 213.191379)"><g><path d="M 87.84375 -101.796875 L 118.84375 -101.796875 L 54.59375 40.640625 L 23.609375 40.640625 L 48.84375 -15.390625 L 5.75 -101.796875 L 37.359375 -101.796875 L 63.828125 -48.640625 Z M 87.84375 -101.796875 "/></g></g></g><g fill="#171717" fill-opacity="1"><g transform="translate(935.689071, 213.191379)"><g><path d="M 102.21875 -74.921875 C 107.957031 -71.492188 112.332031 -67.113281 115.34375 -61.78125 C 118.351562 -56.445312 119.859375 -50.289062 119.859375 -43.3125 C 119.859375 -36.738281 118.285156 -30.613281 115.140625 -24.9375 C 111.992188 -19.257812 107.546875 -14.234375 101.796875 -9.859375 C 96.597656 -5.890625 90.679688 -2.84375 84.046875 -0.71875 C 77.410156 1.40625 70.398438 2.535156 63.015625 2.671875 C 55.617188 2.671875 48.566406 1.644531 41.859375 -0.40625 C 35.160156 -2.457031 29.210938 -5.535156 24.015625 -9.640625 C 16.210938 -15.523438 10.875 -22.644531 8 -31 L 36.734375 -44.328125 C 36.734375 -42.960938 37.210938 -41.253906 38.171875 -39.203125 C 39.128906 -37.148438 40.632812 -35.164062 42.6875 -33.25 C 44.738281 -31.332031 47.40625 -29.6875 50.6875 -28.3125 C 53.976562 -26.945312 58.019531 -26.265625 62.8125 -26.265625 C 66.632812 -26.265625 70.015625 -26.742188 72.953125 -27.703125 C 75.898438 -28.660156 78.363281 -29.859375 80.34375 -31.296875 C 82.332031 -32.734375 83.835938 -34.375 84.859375 -36.21875 C 85.890625 -38.070312 86.40625 -39.957031 86.40625 -41.875 C 86.40625 -44.0625 85.6875 -46.113281 84.25 -48.03125 C 82.8125 -49.945312 80.585938 -51.453125 77.578125 -52.546875 C 72.109375 -54.460938 66.328125 -56.066406 60.234375 -57.359375 C 54.148438 -58.660156 48.234375 -60.300781 42.484375 -62.28125 C 36.734375 -64.269531 31.394531 -66.90625 26.46875 -70.1875 C 21.550781 -73.476562 17.65625 -78.066406 14.78125 -83.953125 C 12.175781 -89.148438 10.875 -94.691406 10.875 -100.578125 C 10.875 -107.140625 12.410156 -113.5 15.484375 -119.65625 C 18.566406 -125.8125 22.78125 -131.015625 28.125 -135.265625 C 33.1875 -139.234375 38.863281 -142.273438 45.15625 -144.390625 C 51.445312 -146.515625 58.082031 -147.578125 65.0625 -147.578125 C 72.039062 -147.578125 78.710938 -146.550781 85.078125 -144.5 C 91.441406 -142.445312 97.15625 -139.4375 102.21875 -135.46875 C 107.144531 -131.769531 111.039062 -127.457031 113.90625 -122.53125 L 90.515625 -106.53125 C 87.640625 -110.5 84.046875 -113.675781 79.734375 -116.0625 C 75.429688 -118.457031 70.609375 -119.65625 65.265625 -119.65625 C 57.878906 -119.65625 52.164062 -118.015625 48.125 -114.734375 C 44.09375 -111.453125 42.078125 -107.140625 42.078125 -101.796875 C 42.078125 -99.335938 43.203125 -97.148438 45.453125 -95.234375 C 47.710938 -93.316406 50.65625 -91.601562 54.28125 -90.09375 C 57.914062 -88.59375 61.988281 -87.257812 66.5 -86.09375 C 71.019531 -84.9375 75.5 -83.773438 79.9375 -82.609375 C 84.382812 -81.453125 88.59375 -80.253906 92.5625 -79.015625 C 96.53125 -77.785156 99.75 -76.421875 102.21875 -74.921875 Z M 102.21875 -74.921875 "/></g></g></g><g fill="#171717" fill-opacity="1"><g transform="translate(1062.119726, 213.191379)"><g><path d="M 46.796875 -36.53125 C 46.796875 -31.738281 48.265625 -28.039062 51.203125 -25.4375 C 54.148438 -22.84375 58.019531 -21.546875 62.8125 -21.546875 C 66.632812 -21.546875 70.460938 -22.300781 74.296875 -23.8125 L 74.296875 0 C 70.878906 1.09375 67.253906 2.015625 63.421875 2.765625 C 59.585938 3.523438 55.753906 3.90625 51.921875 3.90625 C 47.546875 3.90625 43.375 3.351562 39.40625 2.25 C 35.4375 1.15625 31.878906 -0.722656 28.734375 -3.390625 C 25.585938 -6.054688 23.085938 -9.613281 21.234375 -14.0625 C 19.390625 -18.507812 18.46875 -24.015625 18.46875 -30.578125 L 18.46875 -76.5625 L 3.90625 -76.5625 L 3.90625 -95.640625 L 18.46875 -101.796875 L 18.46875 -124.59375 L 46.796875 -124.59375 L 46.796875 -101.796875 L 74.296875 -101.796875 L 74.296875 -76.5625 L 46.796875 -76.5625 Z M 46.796875 -36.53125 "/></g></g></g><g fill="#171717" fill-opacity="1"><g transform="translate(1140.728454, 213.191379)"><g><path d="M 73.6875 -101.796875 L 102.015625 -101.796875 L 102.015625 0 L 77.796875 0 L 73.6875 -7.796875 C 70.40625 -5.472656 66.675781 -3.59375 62.5 -2.15625 C 58.320312 -0.71875 53.84375 0 49.0625 0 C 45.363281 0 41.148438 -0.546875 36.421875 -1.640625 C 31.703125 -2.734375 27.289062 -4.785156 23.1875 -7.796875 C 19.082031 -10.804688 15.628906 -14.976562 12.828125 -20.3125 C 10.023438 -25.65625 8.625 -32.566406 8.625 -41.046875 L 8.625 -101.796875 L 37.15625 -101.796875 L 37.15625 -42.078125 C 37.15625 -38.929688 37.664062 -36.257812 38.6875 -34.0625 C 39.71875 -31.875 41.085938 -30.128906 42.796875 -28.828125 C 44.503906 -27.535156 46.453125 -26.582031 48.640625 -25.96875 C 50.828125 -25.351562 53.085938 -25.046875 55.421875 -25.046875 C 57.191406 -25.046875 59.140625 -25.351562 61.265625 -25.96875 C 63.390625 -26.582031 65.375 -27.570312 67.21875 -28.9375 C 69.0625 -30.3125 70.597656 -32.09375 71.828125 -34.28125 C 73.066406 -36.46875 73.6875 -39.066406 73.6875 -42.078125 Z M 73.6875 -101.796875 "/></g></g></g><g fill="#171717" fill-opacity="1"><g transform="translate(1252.176321, 213.191379)"><g><path d="M 17.234375 -110.421875 C 17.234375 -117.535156 18.296875 -123.65625 20.421875 -128.78125 C 22.546875 -133.914062 25.382812 -138.160156 28.9375 -141.515625 C 32.5 -144.867188 36.601562 -147.332031 41.25 -148.90625 C 45.90625 -150.476562 50.832031 -151.265625 56.03125 -151.265625 C 59.175781 -151.265625 62.320312 -150.988281 65.46875 -150.4375 C 68.625 -149.894531 71.773438 -149.078125 74.921875 -147.984375 L 72.65625 -127.25 L 65.890625 -128.28125 C 64.796875 -128.414062 63.800781 -128.515625 62.90625 -128.578125 C 62.019531 -128.648438 61.164062 -128.6875 60.34375 -128.6875 C 55.144531 -128.6875 51.347656 -127.421875 48.953125 -124.890625 C 46.554688 -122.359375 45.359375 -118.695312 45.359375 -113.90625 L 45.359375 -101.796875 L 72.65625 -101.796875 L 72.65625 -76.5625 L 45.359375 -76.5625 L 45.359375 0 L 17.234375 0 L 17.234375 -76.5625 L 3.90625 -76.5625 L 3.90625 -91.546875 L 17.234375 -101.796875 Z M 17.234375 -110.421875 "/></g></g></g><g fill="#171717" fill-opacity="1"><g transform="translate(1329.964095, 213.191379)"><g><path d="M 17.234375 -110.421875 C 17.234375 -117.535156 18.296875 -123.65625 20.421875 -128.78125 C 22.546875 -133.914062 25.382812 -138.160156 28.9375 -141.515625 C 32.5 -144.867188 36.601562 -147.332031 41.25 -148.90625 C 45.90625 -150.476562 50.832031 -151.265625 56.03125 -151.265625 C 59.175781 -151.265625 62.320312 -150.988281 65.46875 -150.4375 C 68.625 -149.894531 71.773438 -149.078125 74.921875 -147.984375 L 72.65625 -127.25 L 65.890625 -128.28125 C 64.796875 -128.414062 63.800781 -128.515625 62.90625 -128.578125 C 62.019531 -128.648438 61.164062 -128.6875 60.34375 -128.6875 C 55.144531 -128.6875 51.347656 -127.421875 48.953125 -124.890625 C 46.554688 -122.359375 45.359375 -118.695312 45.359375 -113.90625 L 45.359375 -101.796875 L 72.65625 -101.796875 L 72.65625 -76.5625 L 45.359375 -76.5625 L 45.359375 0 L 17.234375 0 L 17.234375 -76.5625 L 3.90625 -76.5625 L 3.90625 -91.546875 L 17.234375 -101.796875 Z M 17.234375 -110.421875 "/></g></g></g><g fill="#171717" fill-opacity="1"><g transform="translate(1407.751869, 213.191379)"><g><path d="M 25.453125 -29.5625 C 29.828125 -29.5625 33.550781 -28.054688 36.625 -25.046875 C 39.707031 -22.035156 41.25 -18.335938 41.25 -13.953125 C 41.25 -9.578125 39.707031 -5.882812 36.625 -2.875 C 33.550781 0.132812 29.828125 1.640625 25.453125 1.640625 C 21.078125 1.640625 17.382812 0.132812 14.375 -2.875 C 11.363281 -5.882812 9.859375 -9.578125 9.859375 -13.953125 C 9.859375 -18.335938 11.363281 -22.035156 14.375 -25.046875 C 17.382812 -28.054688 21.078125 -29.5625 25.453125 -29.5625 Z M 25.453125 -29.5625 "/></g></g></g><g clip-path="url(#id1)"><path fill="#171717" d="M 88.636719 58.6875 L 37.136719 58.6875 L 37.136719 121.242188 L 42.277344 121.242188 L 42.277344 63.828125 L 99.691406 63.828125 L 99.691406 58.6875 L 88.636719 58.6875 " fill-opacity="1" fill-rule="nonzero"/></g><g clip-path="url(#id2)"><path fill="#171717" d="M 144.355469 217.402344 L 195.851562 217.402344 L 195.851562 154.851562 L 190.710938 154.851562 L 190.710938 212.261719 L 133.300781 212.261719 L 133.300781 217.402344 L 144.355469 217.402344 " fill-opacity="1" fill-rule="nonzero"/></g><path stroke-linecap="round" transform="matrix(0.000000000000001048, 17.117145, -17.469269, 0.00000000000000107, 45.052702, 138.074374)" fill="none" stroke-linejoin="miter" d="M 0.499992 0.000109923 L 4.152671 0.000109923 " stroke="#171717" stroke-width="1" stroke-opacity="1" stroke-miterlimit="4"/><path stroke-linecap="round" transform="matrix(0.000000000000001075, 17.557054, -17.015523, 0.000000000000001042, 76.367647, 155.62865)" fill="none" stroke-linejoin="miter" d="M 0.499947 0.0000270026 L 2.092968 0.0000270026 " stroke="#171717" stroke-width="1" stroke-opacity="1" stroke-miterlimit="4"/><path stroke-linecap="round" transform="matrix(0.000000000000001048, -17.117145, 17.469269, 0.00000000000000107, 187.944418, 138.044725)" fill="none" stroke-linejoin="miter" d="M 0.500104 0.0000512127 L 4.152783 0.0000512127 " stroke="#171717" stroke-width="1" stroke-opacity="1" stroke-miterlimit="4"/><path stroke-linecap="round" transform="matrix(0.000000000000001075, -17.557054, 17.015523, 0.000000000000001042, 156.628244, 120.457519)" fill="none" stroke-linejoin="miter" d="M 0.49996 0.0000389433 L 2.092981 0.0000389433 " stroke="#171717" stroke-width="1" stroke-opacity="1" stroke-miterlimit="4"/></svg>